<?xml version="1.0" encoding="UTF-8"?>
<!DOCTYPE svg  PUBLIC '-//W3C//DTD SVG 1.1//EN'  'http://www.w3.org/Graphics/SVG/1.1/DTD/svg11.dtd'>
<svg version="1.1" viewBox="0 0 1e3 1e3" xmlns="http://www.w3.org/2000/svg">
<path d="m579.26 118.91c-11.156-34.335-43.153-57.582-79.255-57.582s-68.099 23.247-79.255 57.582-43.601 134.19-69.492 213.88h-224.88c-36.103 0-68.099 23.246-79.255 57.582-11.156 34.335 1.065 71.949 30.273 93.169l181.93 132.18s-69.492 213.88-69.492 213.88c-11.157 34.335 1.065 71.949 30.272 93.17 29.208 21.22 68.757 21.22 97.964 0l181.93-132.18c67.785 49.249 181.93 132.18 181.93 132.18 29.207 21.22 68.756 21.22 97.964 0 29.207-21.221 41.429-58.835 30.272-93.17s-43.601-134.19-69.492-213.88l181.93-132.18c29.208-21.22 41.429-58.834 30.273-93.169-11.156-34.336-43.152-57.582-79.255-57.582h-224.88c-25.891-79.686-69.492-213.88-69.492-213.88z" fill="#ebebeb" stroke="#000" stroke-width="5"/>
<path d="m539.63 131.78c-5.578-17.168-21.576-28.791-39.627-28.791s-34.049 11.623-39.627 28.791-56.148 172.8-78.848 242.67h-255.15c-18.051 0-34.05 11.624-39.628 28.791-5.578 17.168 0.533 35.975 15.137 46.585s147 106.8 206.42 149.98c-22.699 69.861-78.847 242.67-78.847 242.67-5.578 17.168 0.533 35.974 15.136 46.585 14.604 10.61 34.379 10.61 48.982 0l206.42-149.98s206.42 149.98 206.42 149.98c14.603 10.61 34.378 10.61 48.982 0 14.603-10.611 20.714-29.417 15.136-46.585l-78.847-242.67s206.42-149.98 206.42-149.98c14.604-10.61 20.715-29.417 15.137-46.585-5.578-17.167-21.577-28.791-39.628-28.791s-181.7 0-255.15 0l-78.848-242.67z" fill="#00ebeb"/>
<path d="m519.81 138.22c-2.789-8.584-10.788-14.396-19.814-14.396s-17.025 5.812-19.814 14.396l-83.524 257.06s-270.29 0-270.29 0c-9.026 0-17.025 5.811-19.814 14.395s0.266 17.987 7.568 23.293l218.67 158.87s-83.524 257.06-83.524 257.06c-2.789 8.584 0.266 17.987 7.568 23.292s17.189 5.305 24.491 0 170.94-124.2 218.67-158.87l218.67 158.87c7.302 5.305 17.189 5.305 24.491 0s10.357-14.708 7.568-23.292l-83.524-257.06s218.67-158.87 218.67-158.87c7.302-5.306 10.357-14.709 7.568-23.293s-10.788-14.395-19.814-14.395h-270.29s-83.524-257.06-83.524-257.06z" fill="#eb6300"/>
<path d="m500 144.66 88.202 271.46h285.43l-230.92 167.77 88.202 271.46-230.92-167.77-230.92 167.77 88.202-271.46-230.92-167.77h285.43z" fill="#fff"/>
<path d="m500 212.08 68.388 210.48c2.789 8.584 10.788 14.395 19.814 14.395s137.15 0 221.31 0l-179.04 130.08c-7.302 5.306-10.357 14.709-7.568 23.293l68.388 210.48s-179.04-130.08-179.04-130.08c-7.302-5.305-17.19-5.305-24.492 0l-179.04 130.08s68.388-210.48 68.388-210.48c2.789-8.584-0.266-17.987-7.568-23.293l-179.04-130.08s221.31 0 221.31 0c9.026 0 17.025-5.811 19.814-14.395s42.381-130.44 68.388-210.48z" fill="#0000eb"/>
<path d="m500 279.49 48.575 149.5c5.578 17.167 21.576 28.791 39.627 28.791h157.19s-127.17 92.394-127.17 92.394c-14.604 10.61-20.715 29.417-15.137 46.585l48.575 149.5c-61.356-44.578-127.17-92.394-127.17-92.394-14.604-10.611-34.378-10.611-48.982 0l-127.17 92.394s48.575-149.5 48.575-149.5c5.578-17.168-0.533-35.975-15.137-46.585l-127.17-92.394h157.19c18.051 0 34.049-11.624 39.627-28.791z" fill="#f00"/>
</svg>
