<?xml version="1.0" encoding="UTF-8"?>
<svg version="1.1" viewBox="0 0 800 800" xml:space="preserve" xmlns="http://www.w3.org/2000/svg"><defs><clipPath id="e"><path d="m0 600h600v-600h-600z"/></clipPath><clipPath id="d"><path d="m2.9966 583.54h595.96v-528.71h-595.96z"/></clipPath><linearGradient id="a" x2="1" gradientTransform="matrix(595.96 0 0 -595.96 2.9966 319.19)" gradientUnits="userSpaceOnUse"><stop stop-color="#ed1c24" offset="0"/><stop stop-color="#fbbc09" offset=".11981"/><stop stop-color="#fbbc09" offset=".24157"/><stop stop-color="#fbbc09" offset=".28194"/><stop stop-color="#80cc28" offset=".48315"/><stop stop-color="#00adef" offset=".74157"/><stop stop-color="#5e2590" offset=".96188"/><stop stop-color="#5e2590" offset=".99701"/><stop stop-color="#5e2590" offset="1"/></linearGradient><clipPath id="c"><path d="m142.94 507.16h293.15v-330.44h-293.15z"/></clipPath><linearGradient id="b" x2="1" gradientTransform="matrix(293.15 0 0 -293.15 142.94 341.95)" gradientUnits="userSpaceOnUse"><stop stop-color="#ed1c24" offset="0"/><stop stop-color="#f68712" offset=".08167"/><stop stop-color="#f68712" offset=".16467"/><stop stop-color="#f68712" offset=".16877"/><stop stop-color="#fbbc09" offset=".30539"/><stop stop-color="#fbbc09" offset=".33391"/><stop stop-color="#80cc28" offset=".47605"/><stop stop-color="#00adef" offset=".62575"/><stop stop-color="#176fc1" offset=".78069"/><stop stop-color="#176fc1" offset=".80539"/><stop stop-color="#5e2590" offset=".94232"/><stop stop-color="#5e2590" offset=".99701"/><stop stop-color="#5e2590" offset="1"/></linearGradient></defs><g transform="matrix(1.3333 0 0 -1.3333 0 800)"><g clip-path="url(#e)"><g clip-path="url(#d)"><path d="m159.57 485.68c10.838 3.151 21.777 5.02 32.373 5.988 7.083 4.157 14.514 7.692 22.11 10.781-7.528 0.407-15.17 0.171-23.032-0.406 45.675 25.101 102.02 29.944 151.41 13.312 49.513-16.266 91.625-53.996 113.12-101.53 21.925-47.254 23.011-103.83 3.066-151.95-19.552-48.37-60.204-87.669-108.98-105.99l2.798-7.39c50.814 19.095 93.11 59.994 113.49 110.38 20.779 50.148 19.645 109-3.194 158.25-22.403 49.51-66.218 88.777-117.81 105.73-51.46 17.327-110.08 12.282-157.69-13.866 5.111 6.249 10.64 12.489 16.742 18.298-8.727-3.549-17.258-7.619-25.394-12.38-7.389-9.426-13.812-19.134-19.025-29.221m106.11 21.228c8.031-3.044 15.645-6.502 22.744-10.537 6.146-0.196 12.242-0.866 18.308-1.683-4.649 3.288-9.56 6.486-14.754 9.418 38.749-2.092 76.247-17.979 104.87-44.246 28.676-26.181 47.942-62.2 53.481-100.5 5.649-38.464-2.011-78.548-21.94-111.76-19.71-33.367-51.265-59.596-87.549-72.92l2.273-6.177c37.705 13.845 70.458 41.078 90.932 75.733 20.706 34.506 28.667 76.16 22.796 116.08-5.753 39.792-25.774 77.216-55.548 104.4-29.714 27.275-68.7 43.792-108.94 45.961 5.696 2.297 11.599 4.288 17.729 6.084-6.899 0.945-13.831 1.693-20.81 1.921-8.358-3.366-16.256-7.407-23.594-11.774m87.031-40.522c3.277-5.152 6.142-10.394 8.615-15.664 3.51-2.413 6.895-4.992 10.224-7.654-1.474 3.774-2.984 7.766-4.843 11.544 44.56-30.77 68.877-86.529 61.099-140.15-6.433-53.202-45.533-101.04-96.194-118.64l1.772-4.958c52.489 18.246 92.958 67.761 99.64 122.9 8.062 55.497-17.148 113.32-63.283 145.16 4.389-0.421 8.678-1.244 13.168-2.064-3.743 3.004-7.559 5.907-11.511 8.624-6.356 0.71-12.596 1.006-18.687 0.912m40.488-72.389c-0.436-4.051-0.943-7.931-1.753-11.752 1.149-2.436 2.017-4.987 3.013-7.481 0.711 2.631 1.292 5.309 1.913 8.097 13.303-30.806 13.039-68.239-0.815-98.787-13.559-30.936-40.837-56.185-72.772-66.965l1.294-3.731c32.968 11.137 61.09 37.162 75.088 69.093 14.299 31.55 14.57 70.121 0.839 101.94 2.307-1.625 4.722-3.304 7.059-5.106-1.1 2.781-2.081 5.616-3.352 8.331-3.425 2.353-7.02 4.432-10.514 6.365m-9.151-69.251c-1.575-1.7-3.442-3.265-5.052-4.793-0.173-1.469-0.55-2.895-0.752-4.355 1.227 1.01 2.488 2.053 3.78 3.133-5.126-36.086-32.68-69.01-67.656-80.199l0.839-2.494c35.9 11.491 64.148 45.242 69.42 82.292 0.776-1.43 1.574-2.903 2.386-4.421 0.23 1.593 0.627 3.15 0.818 4.754-1.309 2.115-2.392 4.112-3.783 6.083m-40.601-39.767c-0.975-0.121-2.033-0.149-3.06-0.176l-1.139-1.329 2.137 0.083c-9.349-10.923-21.691-19.249-35.024-23.472l0.409-1.252c13.563 4.298 26.111 12.762 35.613 23.867l0.196-2.196 1.205 1.403c-0.079 1.024-0.155 2.017-0.337 3.072m-44.677-3.217m-40.191 265.96c9.9-2.746 19.364-5.958 28.332-9.979 7.687-0.081 15.355-0.795 22.963-1.812-5.968 3.501-12.23 6.635-18.744 9.583 48.118-1.855 95.312-20.959 131.21-53.041 36.104-31.85 60.763-76.365 68.369-123.93 7.768-47.464-0.975-97.632-25.201-139.28-23.807-41.842-62.468-74.985-107.42-92.191l2.368-6.141c46.36 17.75 86.201 51.912 110.76 95.052 24.983 42.956 34 94.694 25.989 143.61-7.843 49.059-33.277 94.964-70.494 127.8-37.006 33.074-85.7 52.784-135.3 54.695 6.936 2.288 14.113 4.361 21.484 5.965-8.444 1.132-16.952 1.912-25.463 2.01-10.117-3.395-19.759-7.689-28.851-12.342m126.91-5.281c6.063-6.375 11.698-12.905 16.756-19.754 5.714-3.582 11.211-7.517 16.535-11.648-3.095 5.157-6.57 10.09-10.19 15.061 34.908-23.049 63.323-55.734 81.231-93.574 18.074-37.816 24.986-80.654 20.766-122.18-4.302-41.632-20.361-81.981-45.759-115.21-25.274-33.332-59.895-59.437-98.883-74.678l1.924-4.903c39.888 15.594 75.293 42.296 101.14 76.386 25.977 33.979 42.416 75.268 46.812 117.85 4.32 42.461-2.755 86.287-21.242 124.98-18.323 38.712-47.38 72.137-83.086 95.714 6.045-1.539 12.202-3.22 18.222-5.33-5.749 4.46-11.684 8.706-17.855 12.576-8.797 2.174-17.662 3.661-26.375 4.704m111.21-79.749c1.491-6.889 2.711-13.725 3.576-20.551 2.45-4.934 4.704-9.975 6.828-15.06-0.247 4.857-0.831 9.667-1.314 14.617 29.598-61.257 32.32-134.27 7.41-197.52-24.474-63.374-75.974-115.34-139.2-140.25l1.465-3.667c64.234 25.308 116.54 78.086 141.41 142.48 25.308 64.269 22.541 138.42-7.53 200.67 3.352-3.651 6.883-7.328 10.137-11.218-2.241 5.365-4.619 10.686-7.207 15.894-5.025 5.165-10.26 10.013-15.581 14.607m52.929-136.87c-1.533-4.698-3.428-9.317-5.269-13.855-0.24-3.961-0.771-7.903-1.274-11.845 1.415 3.146 3.012 6.319 4.254 9.555-4.405-48.3-22.425-95.467-51.448-134.29-28.944-38.886-68.588-69.648-113.64-87.907l0.991-2.439c45.495 18.44 85.53 49.505 114.76 88.772 29.309 39.207 47.511 86.847 51.958 135.62 0.845-3.461 1.328-6.938 1.978-10.465 0.523 4.075 1.07 8.151 1.319 12.246-1.112 4.945-2.188 9.814-3.63 14.606m-32.48-153.33-6.212-4.887c-1.226-1.747-2.496-3.462-3.831-5.129 1.517 1.075 3.026 2.166 4.47 3.319-30.673-41.741-72.817-74.858-120.86-94.685l0.504-1.217c48.267 19.918 90.604 53.187 121.42 95.119-0.603-1.781-1.282-3.516-1.98-5.248 1.353 1.693 2.644 3.434 3.887 5.212zm-117.78-117.66m103.64 438.52c-0.325-7.11-0.994-14.122-1.969-21.013 2.489-3.749 4.657-7.702 6.914-11.596 0.854 4.768 1.768 9.733 2.343 14.649 29.861-47.747 43.593-105.48 39.257-161.29-4.045-56.104-26.532-110.98-63.177-153.58l6.015-5.124c37.715 43.854 60.879 100.37 65.04 158.12 4.465 57.424-9.675 116.89-40.417 166.04 4.837-1.7 9.484-3.681 14.309-5.709-2.484 4.304-4.889 8.656-7.629 12.798-6.871 2.588-13.767 4.822-20.686 6.71m10.292-61.595c-1.856-5.434-3.739-10.677-5.816-15.784l3.342-9.878c1.586 3.524 3.137 7.139 4.65 10.839 14.468-40.905 17.916-85.352 9.963-127.88-7.77-42.63-27.211-83.015-55.424-115.76l4.997-4.287c28.956 33.608 48.92 75.076 56.899 118.85 8.162 43.668 4.626 89.269-10.231 131.28 3.461-2.027 6.945-4.144 10.45-6.359l-3.654 10.807c-5.051 2.933-10.172 5.638-15.176 8.179m-7.457-58.172c-2.344-3.561-4.822-7.018-7.446-10.374 0.299-2.512 0.683-5.015 0.906-7.534 1.923 2.3 3.673 4.642 5.505 7.054 8.22-62.255-11.253-127.79-52.767-175.08l3.983-3.444c42.484 48.383 62.424 115.5 54.01 179.18 2.338-1.936 4.771-3.924 7.046-5.988-0.242 2.724-0.651 5.435-0.976 8.151-3.312 2.817-6.739 5.493-10.261 8.031m-20.467-49.69c-2.388-1.965-4.775-3.866-7.152-5.697-0.159-1.705-0.199-3.422-0.444-5.116 1.781 1.239 3.383 2.533 5.084 3.849-3.42-42.178-20.814-82.964-48.691-114.79l2.979-2.593c28.416 32.445 46.16 74.046 49.648 117.05 1.433-1.613 2.963-3.271 4.301-4.943 0.256 1.81 0.307 3.642 0.473 5.461-2.062 2.329-4.127 4.59-6.198 6.782m-30.224-38.641-5.272-2.24c-0.247-0.986-0.626-1.932-0.937-2.896l3.81 1.471c-7.348-23.83-19.875-46.041-36.338-64.844l1.978-1.733c16.705 19.076 29.419 41.617 36.875 65.801 0.761-1.146 1.446-2.288 2.167-3.454 0.331 1.014 0.726 2.009 0.987 3.044-1.082 1.648-2.176 3.263-3.27 4.851m-35.997-25.964-2.75-0.288-0.67-1.159 1.928 0.191c-5.353-9.462-11.7-18.378-18.904-26.557l0.99-0.871c7.262 8.246 13.665 17.24 19.061 26.779l0.796-1.764 0.69 1.192zm-37.939-12.96m169.48 203.05c-1.456-6.063-3.18-12.032-4.912-17.793 1.38-3.837 2.658-7.714 3.963-11.579 1.425 4.017 2.806 8.119 4.143 12.307 17.131-47.771 21.477-99.449 12.485-149.13-8.747-49.852-31.285-97.126-63.892-135.53l5.021-4.257c33.346 39.269 56.398 87.63 65.35 138.62 9.192 50.821 4.753 103.65-12.776 152.53 3.633-2.482 7.277-5.062 10.934-7.739-1.403 4.178-2.787 8.364-4.282 12.508-5.382 3.543-10.651 6.934-16.034 10.064m35.936-58.047c-2.211-4.721-4.304-9.307-6.747-13.809l1.314-10.38c1.739 3.106 3.459 6.269 5.154 9.493 12.238-84.608-13.505-175.09-69.432-240.31l4.024-3.395c56.884 66.331 83.074 158.39 70.624 244.43 2.471-2.696 4.935-5.457 7.388-8.278l-1.394 10.996c-3.484 3.894-7.291 7.631-10.931 11.261m-11.434-299.7m-397.63 405.37c-2.868-1.759-5.606-3.714-8.337-5.679 4.137-0.958 8.082-1.878 12.089-3.134-32.398-21.04-57.644-52.775-71.287-88.793-13.776-35.946-15.527-76.598-5.315-113.73l7.62 2.085c-9.774 35.512-8.099 74.485 5.085 108.85 13.052 34.453 37.219 64.85 68.232 84.984-0.453-3.946-0.622-8.075-0.763-12.002 2.354 1.696 4.708 3.386 7.185 4.894 0.417 5.663 1.193 11.259 2.217 16.974-5.389 2.078-11.012 4.003-16.726 5.551m-15.585-42.701-5.098-5.351c3.355-0.296 6.641-0.657 9.852-1.077-19.968-20.176-34.271-45.663-41.41-72.952-6.945-27.302-6.815-56.867 0.818-83.987l6.344 1.758c-7.323 25.994-7.445 54.415-0.787 80.585 6.849 26.162 20.56 50.616 39.726 69.979 0.585-3.205 1.227-6.336 1.922-9.386l4.432 4.654c-0.79 4.353-1.481 8.882-1.996 13.496-4.477 0.905-9.057 1.644-13.803 2.281m-1.023-42.392c-0.876-1.421-1.876-2.768-2.649-4.248 2.451 0.156 5.026 0.17 7.509 0.165-20.882-32.172-26.632-73.873-16.12-110.86l5.07 1.426c-10.107 35.569-4.586 75.704 15.499 106.62 1.089-2.2 2.15-4.315 3.398-6.468 0.667 1.3 1.558 2.472 2.321 3.716-1.595 3.072-3.116 6.243-4.434 9.425-3.555 0.238-7.047 0.286-10.594 0.229m10.467-36.527c-0.388-0.945-0.644-1.938-0.986-2.897 1.759 0.294 3.501 0.559 5.224 0.795-8.084-21.928-8.979-47.536-2.457-70.116l3.797 1.083c-6.293 21.774-5.428 46.544 2.369 67.675 1.245-1.289 2.492-2.545 3.745-3.765 0.304 0.848 0.521 1.729 0.867 2.564-1.683 1.759-3.358 3.589-5.02 5.489-2.474-0.217-4.988-0.492-7.539-0.828m19.505-28.005-0.195-1.59 3.282 0.894c-1.694-12.398-0.769-25.49 2.646-37.152l2.53 0.733c-3.311 11.301-4.213 24.026-2.567 36.062l2.975-1.623 0.173 1.437c-1.418 0.773-2.848 1.58-4.17 2.395-1.616-0.342-3.136-0.734-4.674-1.156m25.181-18.096 0.041-0.584 1.534 0.603c0.344-4.583 1.145-8.975 2.385-13.236l1.266 0.37c-1.215 4.175-2 8.473-2.336 12.963l1.6-0.334-0.039 0.545-2.287 0.501zm27.317-6.516m-109.8 161.59c-2.184-2.14-4.242-4.408-6.37-6.606 3.68 0.058 7.296 0.046 10.844-0.033-25.049-25.2-43.417-56.987-52.466-91.342-9.038-34.336-8.969-71.089 0.367-105.36l6.351 1.723c-9.033 33.136-9.099 68.746-0.354 101.95 8.752 33.229 26.523 63.986 50.765 88.379 0.227-3.57 0.52-7.071 0.873-10.5 1.906 1.962 3.742 3.998 5.698 5.911-0.253 4.839-0.486 9.936-0.385 14.948-5.06 0.536-10.069 0.737-15.323 0.922m-40.789-25.565-4.25-6.635c2.968 0.747 5.905 1.44 8.81 2.081-33.937-51.569-44.274-117.7-27.958-177.19l5.085 1.368c-15.926 58.071-5.835 122.63 27.288 172.96 0.644-2.889 1.318-5.728 2.024-8.515l3.92 6.111c-1.003 4.075-1.672 8.07-2.393 12.249-4.113-0.702-8.422-1.42-12.526-2.422m-36.098-36.341c-0.754-1.967-1.582-3.906-2.263-5.897 2.033 1.127 4.201 2.167 6.279 3.205-18.047-46.517-20.819-98.482-7.897-146.62l3.815 1.018c-12.706 47.325-9.978 98.45 7.766 144.17 0.871-2.143 1.674-4.226 2.637-6.332 0.64 1.881 1.428 3.711 2.138 5.567-1.204 2.987-2.447 6.068-3.538 9.155-3.015-1.335-5.933-2.785-8.937-4.273m-28.617-46.205c-0.258-1.47-0.533-2.94-0.699-4.421 1.179 1.079 2.419 2.138 3.677 3.177-5.643-35.11-3.992-71.205 5.154-105.69l2.548 0.669c-9.052 34.122-10.686 69.853-5.101 104.6 0.816-1.361 1.654-2.709 2.558-4.05 0.159 1.43 0.426 2.847 0.678 4.268l-3.5 5.83c-1.769-1.431-3.54-2.892-5.315-4.385m-18.588-54.195c0.032-0.787 0.027-1.576 0.098-2.362l1.487 2.034c0.858-18.894 3.673-37.785 8.515-56.161l1.275 0.334c-4.818 18.286-7.619 37.085-8.476 55.889l1.66-1.859c-0.071 0.775-0.068 1.548-0.097 2.324l-2.312 2.662zm-6.539-60.163m436.72-46.05c46.664 60.371 52.477 148.48 14.575 214.6-18.467 33.129-46.748 60.73-80.313 78.384-33.511 17.747-72.217 25.454-110.05 21.842-37.79-3.391-74.404-18.07-104.11-41.693-29.779-23.513-52.57-55.777-64.597-91.731-12.103-35.891-13.531-75.43-4.11-112.15 9.402-36.739 29.799-70.554 57.823-96.156l5.323 5.81c-26.911 24.588-46.489 57.054-55.511 92.309-9.044 35.231-7.669 73.249 3.945 107.67 11.538 34.5 33.424 65.488 62.019 88.065 28.532 22.683 63.652 36.763 99.935 40.022 36.356 3.47 73.485-3.932 105.65-20.962 32.223-16.947 59.389-43.46 77.115-75.264 36.371-63.454 30.805-148.08-13.992-206.01zm55.288 88.577c6.242 44.353-1.678 90.633-22.716 130.24-20.79 39.733-54.541 72.377-94.648 92.317-40.083 20.141-86.59 26.798-130.76 19.467-44.244-7.225-85.946-28.843-117.44-60.719l5.596-5.549c30.35 30.717 70.514 51.532 113.12 58.492 42.571 7.063 87.381 0.651 125.98-18.749 38.628-19.207 71.166-50.667 91.184-88.939 20.262-38.142 27.893-82.714 21.88-125.47zm8.152 91.952c-15.713 56.884-54.428 106.72-105.39 136.28l-3.976-6.803c49.216-28.55 86.613-76.695 101.78-131.61zm-28.047 68.632c25.254-37.037 39.321-81.682 39.954-126.45l7.879 0.139c-0.653 46.263-15.203 92.452-41.312 130.73zm-29.32 46.391c45.558-41.766 74.037-101.87 77.093-163.73 3.65-61.647-17.778-124.69-58.556-171.19l5.951-5.164c42.108 48.004 64.25 113.16 60.474 176.79-3.154 63.874-32.574 125.97-79.61 169.09zm-23.065 24.778c35.65-24.705 64.368-59.098 82.632-98.469 18.466-39.347 25.647-83.716 21.636-126.74-7.425-86.952-65.18-166.81-145.07-201.47l3.202-7.202c82.452 35.772 142.05 118.17 149.72 207.93 4.144 44.379-3.272 90.18-22.331 130.8-18.854 40.638-48.487 76.12-85.274 101.62zm-8.544 7.614c40.297-25.388 72.954-62.559 92.866-105.89 20.034-43.32 27.034-92.397 20.078-139.44-6.782-47.202-27.756-92.243-59.304-127.85-31.42-35.722-73.361-62.157-119.37-74.836l2.106-7.594c47.488 13.087 90.761 40.363 123.17 77.217 32.544 36.734 54.194 83.221 61.191 131.93 7.178 48.523-0.04 99.157-20.717 143.87-20.555 44.715-54.239 83.055-95.816 109.25zm39.564-248.32c8.086 35.739 4.76 74.212-9.653 107.81-14.366 33.699-39.617 62.773-71.017 81.759-31.387 19.022-68.647 27.699-105.37 24.66-36.583-2.854-72-17.537-99.84-41.542l5.119-5.991c26.611 22.941 60.41 36.951 95.356 39.676 35.122 2.902 70.666-5.382 100.65-23.546 29.993-18.136 54.129-45.931 67.845-78.107 13.761-32.059 16.941-68.86 9.218-102.99zm-14.221 58.385c-4.723 40.381-25.992 78.435-57.863 103.99l-4.953-6.132c30.308-24.304 50.509-60.457 54.994-98.817zm-30.482 32.869c10.131-24.137 12.867-51.788 7.972-77.763l7.748-1.443c5.172 27.461 2.281 56.653-8.437 82.216zm-20.363 17.88c18.196-27.174 25.023-61.483 18.854-93.928-5.825-32.017-24.867-61.617-51.774-80.55l4.556-6.431c28.554 20.09 48.772 51.506 54.967 85.534 6.546 34.407-0.704 70.857-20.03 99.723zm-13.236 8.076c13.81-16.574 23.332-36.499 26.754-57.643 3.666-21.228 1.528-43.676-5.955-63.519-14.732-40.378-52.984-71.548-95.33-77.619l1.199-7.789c45.142 6.485 85.807 39.626 101.51 82.636 7.98 21.17 10.245 45.018 6.348 67.614-3.654 22.521-13.791 43.766-28.492 61.391zm-4.492 2.263c15.638-17.181 26.007-38.669 29.563-61.368 3.623-22.936 0.623-46.915-8.706-67.753-18.449-42.656-63.223-72.059-109.7-71.429v-7.882c49.526-0.664 97.257 30.662 116.9 76.116 9.955 22.244 13.145 47.774 9.282 72.194-3.791 24.207-14.857 47.13-31.508 65.423zm32.694 105.43c-38.697 25.464-85.606 38.211-131.83 35.951-46.295-1.891-91.764-19.138-127.93-48.02-36.349-28.697-63.244-69.112-75.695-113.76-12.568-44.605-10.771-93.012 5.154-136.57l7.401 2.708c-15.353 41.981-17.088 88.727-4.967 131.73 12.003 43.043 37.942 82.035 73.014 109.72 34.895 27.861 78.715 44.488 123.38 46.314 44.616 2.175 89.818-10.114 127.15-34.672zm-288.83-10.239c-45.264-42.679-72.988-103.63-75.193-165.89l7.877-0.317c2.135 60.244 28.944 119.18 72.749 160.49zm-76.794-233.3c-11.026 46.999-8.395 96.905 8.086 142.44l-7.415 2.669c-17.002-46.992-19.716-98.424-8.343-146.91zm97.045-159.56c-55.74 37.556-96.106 97.273-109.61 163.41-13.831 65.731-1.316 136.76 34.987 193.6l-6.66 4.213c-37.397-58.567-50.293-131.73-36.042-199.42 13.912-68.15 55.486-129.65 112.9-168.33zm107.22-48.979c-46.934 7.036-92.079 26.648-128.85 56.54-36.832 29.735-65.903 69.176-82.693 113.67-17.028 44.486-21.727 93.114-14.003 139.86 7.584 46.91 28.271 91.543 58.524 127.95l-6.059 5.042c-31.139-37.464-52.431-83.419-60.242-131.71-7.949-48.108-3.112-98.139 14.415-143.95 17.29-45.803 47.204-86.394 85.112-117 37.84-30.759 84.318-50.957 132.63-58.196zm39.816-5.23c-51.991-0.096-104.4 15.347-148 43.965-43.723 28.442-78.893 69.631-100.03 117.44-21.304 47.852-28.019 101.62-19.79 153.04 8.116 51.647 31.857 100.68 66.955 139.17l-5.835 5.299c-36.111-39.596-60.548-90.064-68.903-143.22-8.467-52.895-1.559-108.22 20.37-157.48 21.751-49.207 57.933-91.58 102.92-120.85 44.861-29.451 98.824-45.35 152.3-45.246zm66.345 442.99c-45.292 17.681-97.955 16.248-142.16-3.974-44.428-19.916-80.3-58.361-96.976-104.1l7.394-2.724c15.95 43.763 50.317 80.594 92.833 99.648 42.267 19.349 92.747 20.72 136.06 3.803zm-202.09-74.779c18.655 26.151 45.051 46.773 74.885 58.408l-2.877 7.337c-31.259-12.194-58.884-33.779-78.416-61.158zm-23.092-124.45c-8.912 50.003 7.265 103.04 42.723 139.29 34.961 36.697 87.227 55.119 137.58 47.978l1.038 7.813c-52.752 7.491-107.66-11.846-144.29-50.324-37.177-37.992-54.166-93.703-44.814-146.09zm14.304-39.608c-12.942 27.656-17.609 59.262-13.194 89.734 4.254 30.318 17.55 59.196 37.835 82.288 20.207 23.145 47.182 40.243 76.61 48.459 29.348 8.286 61.619 7.926 90.72-1.165l2.343 7.525c-30.576 9.546-64.368 9.925-95.199 1.227-30.902-8.63-59.206-26.577-80.402-50.854-21.281-24.219-35.246-54.547-39.711-86.376-4.627-31.951 0.262-65.117 13.852-94.165zm129.59 209.55c27.677 2.795 55.693-2.346 80.122-14.937l3.598 7.014c-25.787 13.29-55.377 18.716-84.53 15.763zm-83.369-60.747c15.775 19.012 37.124 33.283 60.472 40.472 23.208 7.264 49.41 7.465 72.808 0.795 47.452-12.793 85.487-56.294 91.582-104.99l7.804 1.091c-6.5 51.759-46.817 97.872-97.235 111.48-24.88 7.085-52.604 6.866-77.288-0.849-24.813-7.639-47.465-22.788-64.2-42.959zm189.64 127.59c40.301-17.541 75.195-47.009 99.337-83.692l6.577 4.341c-24.974 37.947-61.056 68.421-102.76 86.572zm-136.85 27.71c45.573 8.79 93.559 4.146 136.62-13.503 43.058-17.507 80.663-47.736 107.11-85.864 26.591-38.027 41.721-84.093 42.949-130.43 1.514-46.264-10.746-93.192-35.05-132.76l6.727-4.105c25.098 40.856 37.766 89.353 36.201 137.1-1.267 47.836-16.899 95.439-44.357 134.7-27.305 39.369-66.126 70.577-110.6 88.661-44.498 18.23-94.021 23.02-141.08 13.947zm-37.113-36.85c38.487 16.037 81.618 20.322 122.53 12.638l1.443 7.747c-42.404 7.961-87.072 3.523-126.99-13.1zm-139.69-128.88c13.636 42.853 40.062 81.391 74.878 109.71 34.719 28.422 77.914 46.564 122.61 51.157 44.56 4.729 90.606-3.53 130.62-24.031 40.06-20.337 73.915-52.462 96.358-91.362l-6.82-3.948c-21.685 37.587-54.412 68.64-93.115 88.286-38.655 19.804-83.13 27.785-126.21 23.216-43.188-4.438-84.903-21.957-118.46-49.425-33.647-27.365-59.184-64.61-72.353-106z" fill="url(#a)"/><path d="m159.57 485.68c10.838 3.151 21.777 5.02 32.373 5.988 7.083 4.157 14.514 7.692 22.11 10.781-7.528 0.407-15.17 0.171-23.032-0.406 45.675 25.101 102.02 29.944 151.41 13.312 49.513-16.266 91.625-53.996 113.12-101.53 21.925-47.254 23.011-103.83 3.066-151.95-19.552-48.37-60.204-87.669-108.98-105.99l2.798-7.39c50.814 19.095 93.11 59.994 113.49 110.38 20.779 50.148 19.645 109-3.194 158.25-22.403 49.51-66.218 88.777-117.81 105.73-51.46 17.327-110.08 12.282-157.69-13.866 5.111 6.249 10.64 12.489 16.742 18.298-8.727-3.549-17.258-7.619-25.394-12.38-7.389-9.426-13.812-19.134-19.025-29.221m106.11 21.228c8.031-3.044 15.645-6.502 22.744-10.537 6.146-0.196 12.242-0.866 18.308-1.683-4.649 3.288-9.56 6.486-14.754 9.418 38.749-2.092 76.247-17.979 104.87-44.246 28.676-26.181 47.942-62.2 53.481-100.5 5.649-38.464-2.011-78.548-21.94-111.76-19.71-33.367-51.265-59.596-87.549-72.92l2.273-6.177c37.705 13.845 70.458 41.078 90.932 75.733 20.706 34.506 28.667 76.16 22.796 116.08-5.753 39.792-25.774 77.216-55.548 104.4-29.714 27.275-68.7 43.792-108.94 45.961 5.696 2.297 11.599 4.288 17.729 6.084-6.899 0.945-13.831 1.693-20.81 1.921-8.358-3.366-16.256-7.407-23.594-11.774m87.031-40.522c3.277-5.152 6.142-10.394 8.615-15.664 3.51-2.413 6.895-4.992 10.224-7.654-1.474 3.774-2.984 7.766-4.843 11.544 44.56-30.77 68.877-86.529 61.099-140.15-6.433-53.202-45.533-101.04-96.194-118.64l1.772-4.958c52.489 18.246 92.958 67.761 99.64 122.9 8.062 55.497-17.148 113.32-63.283 145.16 4.389-0.421 8.678-1.244 13.168-2.064-3.743 3.004-7.559 5.907-11.511 8.624-6.356 0.71-12.596 1.006-18.687 0.912m40.488-72.389c-0.436-4.051-0.943-7.931-1.753-11.752 1.149-2.436 2.017-4.987 3.013-7.481 0.711 2.631 1.292 5.309 1.913 8.097 13.303-30.806 13.039-68.239-0.815-98.787-13.559-30.936-40.837-56.185-72.772-66.965l1.294-3.731c32.968 11.137 61.09 37.162 75.088 69.093 14.299 31.55 14.57 70.121 0.839 101.94 2.307-1.625 4.722-3.304 7.059-5.106-1.1 2.781-2.081 5.616-3.352 8.331-3.425 2.353-7.02 4.432-10.514 6.365m-9.151-69.251c-1.575-1.7-3.442-3.265-5.052-4.793-0.173-1.469-0.55-2.895-0.752-4.355 1.227 1.01 2.488 2.053 3.78 3.133-5.126-36.086-32.68-69.01-67.656-80.199l0.839-2.494c35.9 11.491 64.148 45.242 69.42 82.292 0.776-1.43 1.574-2.903 2.386-4.421 0.23 1.593 0.627 3.15 0.818 4.754-1.309 2.115-2.392 4.112-3.783 6.083m-40.601-39.767c-0.975-0.121-2.033-0.149-3.06-0.176l-1.139-1.329 2.137 0.083c-9.349-10.923-21.691-19.249-35.024-23.472l0.409-1.252c13.563 4.298 26.111 12.762 35.613 23.867l0.196-2.196 1.205 1.403c-0.079 1.024-0.155 2.017-0.337 3.072m-44.677-3.217m-40.191 265.96c9.9-2.746 19.364-5.958 28.332-9.979 7.687-0.081 15.355-0.795 22.963-1.812-5.968 3.501-12.23 6.635-18.744 9.583 48.118-1.855 95.312-20.959 131.21-53.041 36.104-31.85 60.763-76.365 68.369-123.93 7.768-47.464-0.975-97.632-25.201-139.28-23.807-41.842-62.468-74.985-107.42-92.191l2.368-6.141c46.36 17.75 86.201 51.912 110.76 95.052 24.983 42.956 34 94.694 25.989 143.61-7.843 49.059-33.277 94.964-70.494 127.8-37.006 33.074-85.7 52.784-135.3 54.695 6.936 2.288 14.113 4.361 21.484 5.965-8.444 1.132-16.952 1.912-25.463 2.01-10.117-3.395-19.759-7.689-28.851-12.342m126.91-5.281c6.063-6.375 11.698-12.905 16.756-19.754 5.714-3.582 11.211-7.517 16.535-11.648-3.095 5.157-6.57 10.09-10.19 15.061 34.908-23.049 63.323-55.734 81.231-93.574 18.074-37.816 24.986-80.654 20.766-122.18-4.302-41.632-20.361-81.981-45.759-115.21-25.274-33.332-59.895-59.437-98.883-74.678l1.924-4.903c39.888 15.594 75.293 42.296 101.14 76.386 25.977 33.979 42.416 75.268 46.812 117.85 4.32 42.461-2.755 86.287-21.242 124.98-18.323 38.712-47.38 72.137-83.086 95.714 6.045-1.539 12.202-3.22 18.222-5.33-5.749 4.46-11.684 8.706-17.855 12.576-8.797 2.174-17.662 3.661-26.375 4.704m111.21-79.749c1.491-6.889 2.711-13.725 3.576-20.551 2.45-4.934 4.704-9.975 6.828-15.06-0.247 4.857-0.831 9.667-1.314 14.617 29.598-61.257 32.32-134.27 7.41-197.52-24.474-63.374-75.974-115.34-139.2-140.25l1.465-3.667c64.234 25.308 116.54 78.086 141.41 142.48 25.308 64.269 22.541 138.42-7.53 200.67 3.352-3.651 6.883-7.328 10.137-11.218-2.241 5.365-4.619 10.686-7.207 15.894-5.025 5.165-10.26 10.013-15.581 14.607m52.929-136.87c-1.533-4.698-3.428-9.317-5.269-13.855-0.24-3.961-0.771-7.903-1.274-11.845 1.415 3.146 3.012 6.319 4.254 9.555-4.405-48.3-22.425-95.467-51.448-134.29-28.944-38.886-68.588-69.648-113.64-87.907l0.991-2.439c45.495 18.44 85.53 49.505 114.76 88.772 29.309 39.207 47.511 86.847 51.958 135.62 0.845-3.461 1.328-6.938 1.978-10.465 0.523 4.075 1.07 8.151 1.319 12.246-1.112 4.945-2.188 9.814-3.63 14.606m-32.48-153.33-6.212-4.887c-1.226-1.747-2.496-3.462-3.831-5.129 1.517 1.075 3.026 2.166 4.47 3.319-30.673-41.741-72.817-74.858-120.86-94.685l0.504-1.217c48.267 19.918 90.604 53.187 121.42 95.119-0.603-1.781-1.282-3.516-1.98-5.248 1.353 1.693 2.644 3.434 3.887 5.212zm-117.78-117.66m103.64 438.52c-0.325-7.11-0.994-14.122-1.969-21.013 2.489-3.749 4.657-7.702 6.914-11.596 0.854 4.768 1.768 9.733 2.343 14.649 29.861-47.747 43.593-105.48 39.257-161.29-4.045-56.104-26.532-110.98-63.177-153.58l6.015-5.124c37.715 43.854 60.879 100.37 65.04 158.12 4.465 57.424-9.675 116.89-40.417 166.04 4.837-1.7 9.484-3.681 14.309-5.709-2.484 4.304-4.889 8.656-7.629 12.798-6.871 2.588-13.767 4.822-20.686 6.71m10.292-61.595c-1.856-5.434-3.739-10.677-5.816-15.784l3.342-9.878c1.586 3.524 3.137 7.139 4.65 10.839 14.468-40.905 17.916-85.352 9.963-127.88-7.77-42.63-27.211-83.015-55.424-115.76l4.997-4.287c28.956 33.608 48.92 75.076 56.899 118.85 8.162 43.668 4.626 89.269-10.231 131.28 3.461-2.027 6.945-4.144 10.45-6.359l-3.654 10.807c-5.051 2.933-10.172 5.638-15.176 8.179m-7.457-58.172c-2.344-3.561-4.822-7.018-7.446-10.374 0.299-2.512 0.683-5.015 0.906-7.534 1.923 2.3 3.673 4.642 5.505 7.054 8.22-62.255-11.253-127.79-52.767-175.08l3.983-3.444c42.484 48.383 62.424 115.5 54.01 179.18 2.338-1.936 4.771-3.924 7.046-5.988-0.242 2.724-0.651 5.435-0.976 8.151-3.312 2.817-6.739 5.493-10.261 8.031m-20.467-49.69c-2.388-1.965-4.775-3.866-7.152-5.697-0.159-1.705-0.199-3.422-0.444-5.116 1.781 1.239 3.383 2.533 5.084 3.849-3.42-42.178-20.814-82.964-48.691-114.79l2.979-2.593c28.416 32.445 46.16 74.046 49.648 117.05 1.433-1.613 2.963-3.271 4.301-4.943 0.256 1.81 0.307 3.642 0.473 5.461-2.062 2.329-4.127 4.59-6.198 6.782m-30.224-38.641-5.272-2.24c-0.247-0.986-0.626-1.932-0.937-2.896l3.81 1.471c-7.348-23.83-19.875-46.041-36.338-64.844l1.978-1.733c16.705 19.076 29.419 41.617 36.875 65.801 0.761-1.146 1.446-2.288 2.167-3.454 0.331 1.014 0.726 2.009 0.987 3.044-1.082 1.648-2.176 3.263-3.27 4.851m-35.997-25.964-2.75-0.288-0.67-1.159 1.928 0.191c-5.353-9.462-11.7-18.378-18.904-26.557l0.99-0.871c7.262 8.246 13.665 17.24 19.061 26.779l0.796-1.764 0.69 1.192zm-37.939-12.96m169.48 203.05c-1.456-6.063-3.18-12.032-4.912-17.793 1.38-3.837 2.658-7.714 3.963-11.579 1.425 4.017 2.806 8.119 4.143 12.307 17.131-47.771 21.477-99.449 12.485-149.13-8.747-49.852-31.285-97.126-63.892-135.53l5.021-4.257c33.346 39.269 56.398 87.63 65.35 138.62 9.192 50.821 4.753 103.65-12.776 152.53 3.633-2.482 7.277-5.062 10.934-7.739-1.403 4.178-2.787 8.364-4.282 12.508-5.382 3.543-10.651 6.934-16.034 10.064m35.936-58.047c-2.211-4.721-4.304-9.307-6.747-13.809l1.314-10.38c1.739 3.106 3.459 6.269 5.154 9.493 12.238-84.608-13.505-175.09-69.432-240.31l4.024-3.395c56.884 66.331 83.074 158.39 70.624 244.43 2.471-2.696 4.935-5.457 7.388-8.278l-1.394 10.996c-3.484 3.894-7.291 7.631-10.931 11.261m-11.434-299.7m-397.63 405.37c-2.868-1.759-5.606-3.714-8.337-5.679 4.137-0.958 8.082-1.878 12.089-3.134-32.398-21.04-57.644-52.775-71.287-88.793-13.776-35.946-15.527-76.598-5.315-113.73l7.62 2.085c-9.774 35.512-8.099 74.485 5.085 108.85 13.052 34.453 37.219 64.85 68.232 84.984-0.453-3.946-0.622-8.075-0.763-12.002 2.354 1.696 4.708 3.386 7.185 4.894 0.417 5.663 1.193 11.259 2.217 16.974-5.389 2.078-11.012 4.003-16.726 5.551m-15.585-42.701-5.098-5.351c3.355-0.296 6.641-0.657 9.852-1.077-19.968-20.176-34.271-45.663-41.41-72.952-6.945-27.302-6.815-56.867 0.818-83.987l6.344 1.758c-7.323 25.994-7.445 54.415-0.787 80.585 6.849 26.162 20.56 50.616 39.726 69.979 0.585-3.205 1.227-6.336 1.922-9.386l4.432 4.654c-0.79 4.353-1.481 8.882-1.996 13.496-4.477 0.905-9.057 1.644-13.803 2.281m-1.023-42.392c-0.876-1.421-1.876-2.768-2.649-4.248 2.451 0.156 5.026 0.17 7.509 0.165-20.882-32.172-26.632-73.873-16.12-110.86l5.07 1.426c-10.107 35.569-4.586 75.704 15.499 106.62 1.089-2.2 2.15-4.315 3.398-6.468 0.667 1.3 1.558 2.472 2.321 3.716-1.595 3.072-3.116 6.243-4.434 9.425-3.555 0.238-7.047 0.286-10.594 0.229m10.467-36.527c-0.388-0.945-0.644-1.938-0.986-2.897 1.759 0.294 3.501 0.559 5.224 0.795-8.084-21.928-8.979-47.536-2.457-70.116l3.797 1.083c-6.293 21.774-5.428 46.544 2.369 67.675 1.245-1.289 2.492-2.545 3.745-3.765 0.304 0.848 0.521 1.729 0.867 2.564-1.683 1.759-3.358 3.589-5.02 5.489-2.474-0.217-4.988-0.492-7.539-0.828m19.505-28.005-0.195-1.59 3.282 0.894c-1.694-12.398-0.769-25.49 2.646-37.152l2.53 0.733c-3.311 11.301-4.213 24.026-2.567 36.062l2.975-1.623 0.173 1.437c-1.418 0.773-2.848 1.58-4.17 2.395-1.616-0.342-3.136-0.734-4.674-1.156m25.181-18.096 0.041-0.584 1.534 0.603c0.344-4.583 1.145-8.975 2.385-13.236l1.266 0.37c-1.215 4.175-2 8.473-2.336 12.963l1.6-0.334-0.039 0.545-2.287 0.501zm27.317-6.516m-109.8 161.59c-2.184-2.14-4.242-4.408-6.37-6.606 3.68 0.058 7.296 0.046 10.844-0.033-25.049-25.2-43.417-56.987-52.466-91.342-9.038-34.336-8.969-71.089 0.367-105.36l6.351 1.723c-9.033 33.136-9.099 68.746-0.354 101.95 8.752 33.229 26.523 63.986 50.765 88.379 0.227-3.57 0.52-7.071 0.873-10.5 1.906 1.962 3.742 3.998 5.698 5.911-0.253 4.839-0.486 9.936-0.385 14.948-5.06 0.536-10.069 0.737-15.323 0.922m-40.789-25.565-4.25-6.635c2.968 0.747 5.905 1.44 8.81 2.081-33.937-51.569-44.274-117.7-27.958-177.19l5.085 1.368c-15.926 58.071-5.835 122.63 27.288 172.96 0.644-2.889 1.318-5.728 2.024-8.515l3.92 6.111c-1.003 4.075-1.672 8.07-2.393 12.249-4.113-0.702-8.422-1.42-12.526-2.422m-36.098-36.341c-0.754-1.967-1.582-3.906-2.263-5.897 2.033 1.127 4.201 2.167 6.279 3.205-18.047-46.517-20.819-98.482-7.897-146.62l3.815 1.018c-12.706 47.325-9.978 98.45 7.766 144.17 0.871-2.143 1.674-4.226 2.637-6.332 0.64 1.881 1.428 3.711 2.138 5.567-1.204 2.987-2.447 6.068-3.538 9.155-3.015-1.335-5.933-2.785-8.937-4.273m-28.617-46.205c-0.258-1.47-0.533-2.94-0.699-4.421 1.179 1.079 2.419 2.138 3.677 3.177-5.643-35.11-3.992-71.205 5.154-105.69l2.548 0.669c-9.052 34.122-10.686 69.853-5.101 104.6 0.816-1.361 1.654-2.709 2.558-4.05 0.159 1.43 0.426 2.847 0.678 4.268l-3.5 5.83c-1.769-1.431-3.54-2.892-5.315-4.385m-18.588-54.195c0.032-0.787 0.027-1.576 0.098-2.362l1.487 2.034c0.858-18.894 3.673-37.785 8.515-56.161l1.275 0.334c-4.818 18.286-7.619 37.085-8.476 55.889l1.66-1.859c-0.071 0.775-0.068 1.548-0.097 2.324l-2.312 2.662zm-6.539-60.163m436.72-46.05c46.664 60.371 52.477 148.48 14.575 214.6-18.467 33.129-46.748 60.73-80.313 78.384-33.511 17.747-72.217 25.454-110.05 21.842-37.79-3.391-74.404-18.07-104.11-41.693-29.779-23.513-52.57-55.777-64.597-91.731-12.103-35.891-13.531-75.43-4.11-112.15 9.402-36.739 29.799-70.554 57.823-96.156l5.323 5.81c-26.911 24.588-46.489 57.054-55.511 92.309-9.044 35.231-7.669 73.249 3.945 107.67 11.538 34.5 33.424 65.488 62.019 88.065 28.532 22.683 63.652 36.763 99.935 40.022 36.356 3.47 73.485-3.932 105.65-20.962 32.223-16.947 59.389-43.46 77.115-75.264 36.371-63.454 30.805-148.08-13.992-206.01zm55.288 88.577c6.242 44.353-1.678 90.633-22.716 130.24-20.79 39.733-54.541 72.377-94.648 92.317-40.083 20.141-86.59 26.798-130.76 19.467-44.244-7.225-85.946-28.843-117.44-60.719l5.596-5.549c30.35 30.717 70.514 51.532 113.12 58.492 42.571 7.063 87.381 0.651 125.98-18.749 38.628-19.207 71.166-50.667 91.184-88.939 20.262-38.142 27.893-82.714 21.88-125.47zm8.152 91.952c-15.713 56.884-54.428 106.72-105.39 136.28l-3.976-6.803c49.216-28.55 86.613-76.695 101.78-131.61zm-28.047 68.632c25.254-37.037 39.321-81.682 39.954-126.45l7.879 0.139c-0.653 46.263-15.203 92.452-41.312 130.73zm-29.32 46.391c45.558-41.766 74.037-101.87 77.093-163.73 3.65-61.647-17.778-124.69-58.556-171.19l5.951-5.164c42.108 48.004 64.25 113.16 60.474 176.79-3.154 63.874-32.574 125.97-79.61 169.09zm-23.065 24.778c35.65-24.705 64.368-59.098 82.632-98.469 18.466-39.347 25.647-83.716 21.636-126.74-7.425-86.952-65.18-166.81-145.07-201.47l3.202-7.202c82.452 35.772 142.05 118.17 149.72 207.93 4.144 44.379-3.272 90.18-22.331 130.8-18.854 40.638-48.487 76.12-85.274 101.62zm-8.544 7.614c40.297-25.388 72.954-62.559 92.866-105.89 20.034-43.32 27.034-92.397 20.078-139.44-6.782-47.202-27.756-92.243-59.304-127.85-31.42-35.722-73.361-62.157-119.37-74.836l2.106-7.594c47.488 13.087 90.761 40.363 123.17 77.217 32.544 36.734 54.194 83.221 61.191 131.93 7.178 48.523-0.04 99.157-20.717 143.87-20.555 44.715-54.239 83.055-95.816 109.25zm39.564-248.32c8.086 35.739 4.76 74.212-9.653 107.81-14.366 33.699-39.617 62.773-71.017 81.759-31.387 19.022-68.647 27.699-105.37 24.66-36.583-2.854-72-17.537-99.84-41.542l5.119-5.991c26.611 22.941 60.41 36.951 95.356 39.676 35.122 2.902 70.666-5.382 100.65-23.546 29.993-18.136 54.129-45.931 67.845-78.107 13.761-32.059 16.941-68.86 9.218-102.99zm-14.221 58.385c-4.723 40.381-25.992 78.435-57.863 103.99l-4.953-6.132c30.308-24.304 50.509-60.457 54.994-98.817zm-30.482 32.869c10.131-24.137 12.867-51.788 7.972-77.763l7.748-1.443c5.172 27.461 2.281 56.653-8.437 82.216zm-20.363 17.88c18.196-27.174 25.023-61.483 18.854-93.928-5.825-32.017-24.867-61.617-51.774-80.55l4.556-6.431c28.554 20.09 48.772 51.506 54.967 85.534 6.546 34.407-0.704 70.857-20.03 99.723zm-13.236 8.076c13.81-16.574 23.332-36.499 26.754-57.643 3.666-21.228 1.528-43.676-5.955-63.519-14.732-40.378-52.984-71.548-95.33-77.619l1.199-7.789c45.142 6.485 85.807 39.626 101.51 82.636 7.98 21.17 10.245 45.018 6.348 67.614-3.654 22.521-13.791 43.766-28.492 61.391zm-4.492 2.263c15.638-17.181 26.007-38.669 29.563-61.368 3.623-22.936 0.623-46.915-8.706-67.753-18.449-42.656-63.223-72.059-109.7-71.429v-7.882c49.526-0.664 97.257 30.662 116.9 76.116 9.955 22.244 13.145 47.774 9.282 72.194-3.791 24.207-14.857 47.13-31.508 65.423zm32.694 105.43c-38.697 25.464-85.606 38.211-131.83 35.951-46.295-1.891-91.764-19.138-127.93-48.02-36.349-28.697-63.244-69.112-75.695-113.76-12.568-44.605-10.771-93.012 5.154-136.57l7.401 2.708c-15.353 41.981-17.088 88.727-4.967 131.73 12.003 43.043 37.942 82.035 73.014 109.72 34.895 27.861 78.715 44.488 123.38 46.314 44.616 2.175 89.818-10.114 127.15-34.672zm-288.83-10.239c-45.264-42.679-72.988-103.63-75.193-165.89l7.877-0.317c2.135 60.244 28.944 119.18 72.749 160.49zm-76.794-233.3c-11.026 46.999-8.395 96.905 8.086 142.44l-7.415 2.669c-17.002-46.992-19.716-98.424-8.343-146.91zm97.045-159.56c-55.74 37.556-96.106 97.273-109.61 163.41-13.831 65.731-1.316 136.76 34.987 193.6l-6.66 4.213c-37.397-58.567-50.293-131.73-36.042-199.42 13.912-68.15 55.486-129.65 112.9-168.33zm107.22-48.979c-46.934 7.036-92.079 26.648-128.85 56.54-36.832 29.735-65.903 69.176-82.693 113.67-17.028 44.486-21.727 93.114-14.003 139.86 7.584 46.91 28.271 91.543 58.524 127.95l-6.059 5.042c-31.139-37.464-52.431-83.419-60.242-131.71-7.949-48.108-3.112-98.139 14.415-143.95 17.29-45.803 47.204-86.394 85.112-117 37.84-30.759 84.318-50.957 132.63-58.196zm39.816-5.23c-51.991-0.096-104.4 15.347-148 43.965-43.723 28.442-78.893 69.631-100.03 117.44-21.304 47.852-28.019 101.62-19.79 153.04 8.116 51.647 31.857 100.68 66.955 139.17l-5.835 5.299c-36.111-39.596-60.548-90.064-68.903-143.22-8.467-52.895-1.559-108.22 20.37-157.48 21.751-49.207 57.933-91.58 102.92-120.85 44.861-29.451 98.824-45.35 152.3-45.246zm66.345 442.99c-45.292 17.681-97.955 16.248-142.16-3.974-44.428-19.916-80.3-58.361-96.976-104.1l7.394-2.724c15.95 43.763 50.317 80.594 92.833 99.648 42.267 19.349 92.747 20.72 136.06 3.803zm-202.09-74.779c18.655 26.151 45.051 46.773 74.885 58.408l-2.877 7.337c-31.259-12.194-58.884-33.779-78.416-61.158zm-23.092-124.45c-8.912 50.003 7.265 103.04 42.723 139.29 34.961 36.697 87.227 55.119 137.58 47.978l1.038 7.813c-52.752 7.491-107.66-11.846-144.29-50.324-37.177-37.992-54.166-93.703-44.814-146.09zm14.304-39.608c-12.942 27.656-17.609 59.262-13.194 89.734 4.254 30.318 17.55 59.196 37.835 82.288 20.207 23.145 47.182 40.243 76.61 48.459 29.348 8.286 61.619 7.926 90.72-1.165l2.343 7.525c-30.576 9.546-64.368 9.925-95.199 1.227-30.902-8.63-59.206-26.577-80.402-50.854-21.281-24.219-35.246-54.547-39.711-86.376-4.627-31.951 0.262-65.117 13.852-94.165zm129.59 209.55c27.677 2.795 55.693-2.346 80.122-14.937l3.598 7.014c-25.787 13.29-55.377 18.716-84.53 15.763zm-83.369-60.747c15.775 19.012 37.124 33.283 60.472 40.472 23.208 7.264 49.41 7.465 72.808 0.795 47.452-12.793 85.487-56.294 91.582-104.99l7.804 1.091c-6.5 51.759-46.817 97.872-97.235 111.48-24.88 7.085-52.604 6.866-77.288-0.849-24.813-7.639-47.465-22.788-64.2-42.959zm189.64 127.59c40.301-17.541 75.195-47.009 99.337-83.692l6.577 4.341c-24.974 37.947-61.056 68.421-102.76 86.572zm-136.85 27.71c45.573 8.79 93.559 4.146 136.62-13.503 43.058-17.507 80.663-47.736 107.11-85.864 26.591-38.027 41.721-84.093 42.949-130.43 1.514-46.264-10.746-93.192-35.05-132.76l6.727-4.105c25.098 40.856 37.766 89.353 36.201 137.1-1.267 47.836-16.899 95.439-44.357 134.7-27.305 39.369-66.126 70.577-110.6 88.661-44.498 18.23-94.021 23.02-141.08 13.947zm-37.113-36.85c38.487 16.037 81.618 20.322 122.53 12.638l1.443 7.747c-42.404 7.961-87.072 3.523-126.99-13.1zm-139.69-128.88c13.636 42.853 40.062 81.391 74.878 109.71 34.719 28.422 77.914 46.564 122.61 51.157 44.56 4.729 90.606-3.53 130.62-24.031 40.06-20.337 73.915-52.462 96.358-91.362l-6.82-3.948c-21.685 37.587-54.412 68.64-93.115 88.286-38.655 19.804-83.13 27.785-126.21 23.216-43.188-4.438-84.903-21.957-118.46-49.425-33.647-27.365-59.184-64.61-72.353-106z" fill="url(#a)"/></g><g clip-path="url(#c)"><path d="m197.2 263.54c-1.747 6.009-2.785 12.076-3.32 17.948-2.304 3.928-4.265 8.049-5.977 12.26-0.227-4.172-0.095-8.409 0.223-12.771-13.917 25.326-16.603 56.567-7.38 83.952 9.019 27.455 29.939 50.804 56.294 62.726 26.201 12.154 57.571 12.759 84.251 1.698 26.819-10.84 48.607-33.382 58.77-60.423l4.095 1.55c-10.588 28.174-33.263 51.626-61.199 62.926-27.806 11.519-60.436 10.892-87.742-1.771-27.452-12.421-49.223-36.716-58.624-65.32-9.606-28.531-6.809-61.035 7.687-87.428-3.463 2.834-6.923 5.898-10.144 9.28 1.967-4.838 4.223-9.568 6.864-14.078 5.226-4.097 10.609-7.659 16.202-10.549m-11.769 58.832c1.687 4.452 3.603 8.675 5.842 12.61 0.108 3.41 0.48 6.787 0.933 10.151-1.823-2.577-3.597-5.3-5.223-8.178 1.161 21.482 9.968 42.274 24.534 58.145 14.516 15.899 34.486 26.583 55.72 29.654 21.327 3.131 43.55-1.115 61.965-12.166 18.499-10.928 33.045-28.424 40.433-48.543l3.425 1.261c-7.677 20.907-22.777 39.066-41.991 50.42-19.133 11.479-42.229 15.893-64.362 12.638-22.063-3.19-42.814-14.291-57.883-30.8-15.123-16.474-24.28-38.091-25.484-60.402-1.274 3.158-2.379 6.433-3.374 9.83-0.522-3.826-0.939-7.669-1.066-11.537 1.868-4.636 4.109-9.014 6.531-13.083m22.465 48.254c2.858 1.818 5.765 3.406 8.686 4.779 1.339 1.944 2.769 3.821 4.244 5.667-2.092-0.818-4.306-1.654-6.4-2.686 17.06 24.708 47.977 38.191 77.706 33.878 29.5-3.568 56.021-25.246 65.785-53.334l2.748 0.983c-10.117 29.102-37.569 51.538-68.142 55.243-30.772 4.471-62.83-9.507-80.482-35.086 0.232 2.433 0.688 4.811 1.144 7.3-1.666-2.076-3.275-4.19-4.782-6.383-0.393-3.522-0.558-6.983-0.507-10.361m40.138 22.451c2.245-0.244 4.399-0.525 6.517-0.973 1.35 0.637 2.763 1.118 4.146 1.669-1.458 0.396-2.943 0.718-4.489 1.062 17.082 7.376 37.837 7.229 54.774-0.451 17.153-7.519 31.152-22.643 37.129-40.35l2.071 0.717c-6.177 18.28-20.607 33.872-38.313 41.635-17.491 7.927-38.877 8.077-56.518 0.464 0.9 1.279 1.832 2.617 2.831 3.912-1.542-0.607-3.115-1.152-4.619-1.856-1.305-1.9-2.457-3.893-3.529-5.829m38.396-5.075c0.943-0.874 1.811-1.909 2.659-2.801 0.815-0.096 1.604-0.305 2.412-0.418-0.557 0.681-1.137 1.381-1.735 2.097 20.007-2.843 38.263-18.12 44.466-37.513l1.385 0.466c-6.373 19.905-25.086 35.567-45.629 38.49 0.793 0.431 1.609 0.873 2.45 1.324-0.881 0.126-1.746 0.347-2.634 0.453-1.175-0.728-2.279-1.327-3.374-2.098m22.049-22.511c0.068-0.542 0.083-1.128 0.098-1.698l0.736-0.632-0.044 1.186c6.054-5.184 10.671-12.027 13.013-19.419l0.695 0.227c-2.384 7.521-7.076 14.477-13.233 19.747l1.218 0.108-0.778 0.667c-0.567-0.043-1.121-0.086-1.705-0.186m1.785-24.772m-147.46-22.283c1.522 5.488 3.302 10.736 5.534 15.708 0.043 4.262 0.439 8.514 1.004 12.731-1.943-3.309-3.679-6.782-5.314-10.392 1.029 26.678 11.621 52.846 29.409 72.752 17.659 20.018 42.342 33.692 68.713 37.908 26.318 4.305 54.135-0.539 77.226-13.972 23.198-13.202 41.575-34.636 51.116-59.559l3.404 1.312c-9.842 25.705-28.783 47.798-52.703 61.41-23.816 13.852-52.502 18.852-79.627 14.41-27.201-4.349-52.654-18.451-70.858-39.086-18.337-20.517-29.266-47.517-30.326-75.019-1.269 3.845-2.418 7.823-3.306 11.91-0.628-4.681-1.061-9.397-1.115-14.118 1.883-5.61 4.264-10.955 6.843-15.995m2.928 70.366c3.535 3.362 7.156 6.487 10.953 9.291 1.985 3.17 4.167 6.216 6.458 9.168-2.859-1.717-5.594-3.641-8.351-5.649 12.78 19.355 30.902 35.109 51.882 45.04 20.969 10.019 44.72 13.851 67.746 11.512 23.083-2.383 45.455-11.29 63.875-25.37 18.481-14.014 32.957-33.21 41.407-54.826l2.719 1.065c-8.647 22.116-23.453 41.748-42.355 56.082-18.838 14.403-41.731 23.515-65.344 25.953-23.543 2.395-47.842-1.526-69.295-11.777-21.465-10.16-39.996-26.27-53.07-46.067 0.855 3.351 1.787 6.765 2.957 10.103-2.474-3.188-4.828-6.479-6.975-9.901-1.204-4.877-2.029-9.791-2.607-14.624m44.217 61.66c3.819 0.828 7.61 1.505 11.394 1.986 2.737 1.358 5.533 2.607 8.35 3.785-2.692-0.136-5.359-0.46-8.103-0.729 33.963 16.41 74.449 17.921 109.52 4.109 35.139-13.571 63.953-42.125 77.761-77.179l2.034 0.811c-14.032 35.616-43.296 64.619-78.998 78.409-35.636 14.031-76.75 12.497-111.26-4.176 2.025 1.86 4.064 3.817 6.221 5.623-2.975-1.243-5.924-2.562-8.812-3.997-2.864-2.788-5.552-5.69-8.1-8.642m75.892 29.348c2.604-0.849 5.164-1.899 7.681-2.92 2.197-0.133 4.382-0.428 6.567-0.707-1.743 0.785-3.502 1.67-5.296 2.358 26.779-2.44 52.933-12.433 74.458-28.525 21.563-16.049 38.616-38.028 48.739-63.006l1.354 0.55c-10.224 25.226-27.448 47.421-49.221 63.627-21.738 16.251-48.151 26.344-75.197 28.808 1.919 0.469 3.847 0.737 5.802 1.1-2.26 0.287-4.518 0.59-6.79 0.73-2.743-0.617-5.44-1.215-8.097-2.015m85.014-18.007 2.709-3.446c0.969-0.678 1.92-1.382 2.843-2.124-0.594 0.842-1.199 1.68-1.839 2.48 23.144-17.008 41.507-40.375 52.498-67.014l0.675 0.278c-11.042 26.764-29.49 50.237-52.739 67.323 0.987-0.334 1.949-0.711 2.91-1.097-0.937 0.75-1.906 1.464-2.888 2.156zm65.238-65.302m-243.14 57.463c3.942-0.181 7.83-0.551 11.65-1.093 2.079 1.381 4.271 2.584 6.43 3.834-2.644 0.476-5.397 0.979-8.123 1.3 26.473 16.558 58.483 24.171 89.429 21.766 31.107-2.243 61.532-14.712 85.156-35.03l2.84 3.337c-24.313 20.91-55.645 33.753-87.668 36.06-31.84 2.477-64.811-5.363-92.063-22.41 0.942 2.684 2.041 5.257 3.163 7.935-2.385-1.377-4.798-2.71-7.095-4.229-1.435-3.81-2.672-7.633-3.719-11.47m34.151 5.706c3.014-1.027 5.919-2.073 8.752-3.224l5.478 1.854c-1.955 0.879-3.959 1.738-6.011 2.575 22.679 8.023 47.325 9.935 70.907 5.527 23.636-4.31 46.028-15.091 64.184-30.733l2.375 2.772c-18.635 16.055-41.626 27.124-65.893 31.549-24.212 4.525-49.496 2.565-72.791-5.674 1.124 1.921 2.299 3.853 3.525 5.794l-5.99-2.026c-1.628-2.8-3.125-5.642-4.536-8.414m32.254-4.135c1.975-1.298 3.891-2.674 5.752-4.127 1.392 0.164 2.78 0.378 4.178 0.502-1.276 1.064-2.575 2.036-3.911 3.051 34.516 4.558 70.855-6.238 97.073-29.257l1.908 2.209c-26.825 23.555-64.035 34.612-99.349 29.945 1.074 1.297 2.177 2.647 3.32 3.908-1.509-0.133-3.012-0.36-4.518-0.542-1.562-1.835-3.045-3.736-4.453-5.689m27.551-11.347c1.091-1.326 2.143-2.649 3.158-3.967 0.945-0.088 1.899-0.109 2.836-0.245-0.686 0.989-1.403 1.874-2.132 2.819 23.386-1.897 46-11.542 63.646-26.997l1.44 1.651c-17.993 15.756-41.057 25.595-64.9 27.527 0.895 0.795 1.814 1.643 2.74 2.383-1.004 0.145-2.02 0.174-3.028 0.266-1.291-1.145-2.545-2.289-3.76-3.437m21.426-16.76 1.24-2.922c0.549-0.137 1.072-0.346 1.607-0.521l-0.818 2.114c13.215-4.072 25.531-11.02 35.954-20.148l0.962 1.096c-10.575 9.263-23.074 16.313-36.483 20.446 0.636 0.421 1.268 0.802 1.914 1.204-0.561 0.181-1.113 0.4-1.687 0.545-0.914-0.601-1.809-1.205-2.689-1.814m14.394-19.958 0.16-1.524 0.643-0.372-0.105 1.069c5.246-2.967 10.189-6.488 14.722-10.481l0.484 0.548c-4.571 4.028-9.557 7.577-14.847 10.569l0.98 0.442-0.662 0.383zm7.184-21.035m-112.58 93.968c3.36-0.808 6.67-1.763 9.865-2.724 2.126 0.765 4.276 1.475 6.419 2.197-2.227 0.79-4.502 1.558-6.824 2.296 26.488 9.5 55.141 11.91 82.69 6.924 27.64-4.849 53.852-17.347 75.143-35.426l2.359 2.785c-21.771 18.488-48.587 31.271-76.858 36.232-28.176 5.099-57.472 2.637-84.571-7.081 1.376 2.014 2.807 4.035 4.29 6.061-2.316-0.777-4.637-1.545-6.933-2.373-1.966-2.985-3.846-5.907-5.58-8.891m32.184 19.924c2.617-1.226 5.16-2.387 7.656-3.741l5.756 0.73c-1.722 0.963-3.477 1.916-5.264 2.857 46.911 6.784 97.079-7.487 133.24-38.497l1.882 2.231c-36.778 31.54-87.821 46.061-135.52 39.159 1.496 1.369 3.027 2.736 4.592 4.096l-6.098-0.774c-2.158-1.931-4.23-4.041-6.243-6.061m166.17-6.339m-224.76-220.47c0.976-1.589 2.059-3.107 3.149-4.622 0.532 2.293 1.042 4.481 1.739 6.701 11.665-17.961 29.26-31.957 49.231-39.524 19.93-7.639 42.47-8.609 63.058-2.946l-1.158 4.224c-19.689-5.418-41.299-4.489-60.35 2.82-19.103 7.236-35.957 20.636-47.121 37.832 2.188-0.252 4.478-0.345 6.655-0.423-0.939 1.306-1.878 2.61-2.712 3.983-3.141 0.23-6.244 0.661-9.413 1.23-1.15-2.989-2.22-6.107-3.078-9.275m23.678-8.639 2.965-2.829c0.165 1.86 0.365 3.683 0.599 5.465 11.185-11.073 25.317-19.003 40.448-22.962 15.136-3.85 31.529-3.778 46.566 0.454l-0.977 3.516c-14.411-4.06-30.168-4.128-44.679-0.437-14.505 3.801-28.064 11.402-38.799 22.028 1.776 0.325 3.512 0.68 5.205 1.066l-2.581 2.457c-2.415-0.438-4.925-0.821-7.483-1.108-0.502-2.48-0.912-5.019-1.264-7.65m23.504-0.569c0.787-0.485 1.534-1.04 2.354-1.467-0.086 1.357-0.094 2.785-0.091 4.162 17.839-11.579 40.96-14.765 61.468-8.939l-0.792 2.813c-19.72-5.605-41.974-2.542-59.114 8.593 1.222 0.603 2.394 1.193 3.587 1.883-0.721 0.37-1.371 0.865-2.061 1.287-1.702-0.883-3.459-1.728-5.225-2.458-0.131-1.971-0.16-3.908-0.126-5.874m20.251 5.804c0.526-0.217 1.073-0.357 1.607-0.548-0.163 0.977-0.311 1.943-0.441 2.898 12.158-4.484 26.356-4.978 38.876-1.364l-0.6 2.107c-12.074-3.489-25.806-3.009-37.524 1.312 0.716 0.691 1.412 1.383 2.089 2.079-0.471 0.169-0.96 0.287-1.422 0.48-0.975-0.934-1.988-1.862-3.044-2.784 0.122-1.372 0.273-2.765 0.459-4.18m15.528 10.814 0.882-0.108-0.495 1.822c6.874-0.941 14.13-0.427 20.599 1.465l-0.407 1.403c-6.267-1.837-13.322-2.335-19.995-1.424l0.9 1.65-0.796 0.095c-0.43-0.785-0.876-1.578-1.329-2.312 0.19-0.896 0.409-1.737 0.641-2.591m10.034 13.962 0.323 0.023-0.332 0.852c2.539 0.19 4.973 0.634 7.337 1.32l-0.205 0.703c-2.314-0.673-4.698-1.109-7.188-1.295l0.185 0.888-0.301-0.023-0.278-1.268zm3.611 15.147m-89.595-60.882c1.188-1.212 2.444-2.351 3.662-3.53-0.031 2.038-0.022 4.044 0.02 6.011 13.972-13.888 31.596-24.074 50.645-29.089 19.038-5.012 39.417-4.974 58.416 0.202l-0.955 3.523c-18.374-5.009-38.118-5.047-56.529-0.198-18.424 4.853-35.478 14.706-49.002 28.148 1.978 0.125 3.919 0.288 5.82 0.482-1.088 1.06-2.215 2.076-3.277 3.159-2.683-0.138-5.507-0.266-8.287-0.212-0.299-2.805-0.411-5.585-0.513-8.496m14.176-22.615 3.679-2.356c-0.415 1.644-0.798 3.273-1.156 4.884 28.595-18.818 65.261-24.55 98.247-15.501l-0.756 2.819c-32.199-8.831-67.998-3.235-95.899 15.13 1.601 0.355 3.176 0.73 4.721 1.123l-3.387 2.172c-2.261-0.556-4.476-0.926-6.792-1.327 0.39-2.281 0.787-4.668 1.343-6.944m20.15-20.015c1.089-0.418 2.164-0.878 3.269-1.254-0.626 1.125-1.202 2.329-1.777 3.482 25.791-10.008 54.604-11.545 81.292-4.381l-0.564 2.116c-26.239-7.045-54.586-5.533-79.939 4.307 1.189 0.482 2.344 0.927 3.511 1.462-1.044 0.354-2.057 0.791-3.087 1.185-1.655-0.669-3.362-1.356-5.076-1.962 0.741-1.671 1.544-3.289 2.371-4.955m25.617-15.868c0.815-0.143 1.63-0.296 2.453-0.387-0.599 0.653-1.187 1.342-1.763 2.039 19.468-3.128 39.481-2.213 58.599 2.858l-0.372 1.413c-18.917-5.02-38.729-5.926-57.995-2.83 0.756 0.453 1.503 0.919 2.247 1.419-0.794 0.089-1.58 0.237-2.367 0.376l-3.233-1.94c0.794-0.981 1.603-1.963 2.431-2.948m30.049-10.306c0.436 0.018 0.873 0.016 1.31 0.056l-1.129 0.823c10.476 0.475 20.952 2.037 31.139 4.722l-0.183 0.707c-10.138-2.672-20.564-4.225-30.988-4.7l1.03 0.921c-0.43-0.039-0.859-0.038-1.289-0.055l-1.475-1.28zm33.358-3.625m25.532 242.14c-33.472 25.873-82.323 29.096-118.99 8.08-18.369-10.24-33.672-25.918-43.459-44.531-9.841-18.579-14.114-40.041-12.113-61.015 1.882-20.954 10.022-41.254 23.118-57.725 13.037-16.511 30.926-29.148 50.862-35.816 19.9-6.712 41.822-7.502 62.181-2.278 20.369 5.213 39.12 16.523 53.314 32.06l-3.222 2.951c-13.632-14.92-31.633-25.777-51.18-30.779-19.535-5.012-40.614-4.252-59.701 2.189-19.129 6.397-36.309 18.531-48.829 34.386-12.575 15.819-20.383 35.292-22.19 55.409-1.925 20.158 2.181 40.745 11.624 58.58 9.394 17.864 24.096 32.927 41.728 42.756 35.183 20.165 82.104 17.081 114.22-7.758zm-49.11 30.653c-24.593 3.462-50.253-0.93-72.212-12.594-22.029-11.528-40.13-30.24-51.184-52.478-11.169-22.226-14.859-48.012-10.794-72.504 4.005-24.53 15.992-47.652 33.666-65.114l3.076 3.104c-17.03 16.828-28.572 39.097-32.431 62.722-3.915 23.604-0.361 48.448 10.397 69.847 10.649 21.418 28.09 39.46 49.312 50.56 21.146 11.232 45.861 15.463 69.566 12.129zm-50.986 4.522c-31.538-8.713-59.169-30.181-75.563-58.436l3.775-2.204c15.829 27.287 42.523 48.023 72.968 56.431zm-38.052-15.554c20.535 14.005 45.291 21.804 70.109 22.154l-0.077 4.369c-25.649-0.362-51.26-8.43-72.485-22.907zm-25.723-16.255c23.158 25.261 56.486 41.051 90.783 42.744 34.18 2.026 69.134-9.856 94.918-32.466l2.862 3.3c-26.614 23.346-62.741 35.624-98.019 33.529-35.416-1.748-69.846-18.06-93.751-44.139zm-13.737-12.788c13.697 19.766 32.767 35.688 54.596 45.815 21.817 10.24 46.417 14.22 70.274 11.996 48.211-4.115 92.488-36.139 111.7-80.437l3.994 1.775c-19.834 45.716-65.518 78.759-115.29 83.013-24.606 2.297-50.002-1.814-72.521-12.383-22.534-10.451-42.205-26.882-56.343-47.279zm-4.222-4.738c14.076 22.342 34.686 40.449 58.711 51.491 24.017 11.108 51.228 14.988 77.311 11.132 26.172-3.761 51.143-15.391 70.888-32.882 19.809-17.42 34.465-40.676 41.494-66.184l4.212 1.168c-7.257 26.329-22.381 50.322-42.814 68.294-20.368 18.044-46.142 30.049-73.151 33.929-26.902 3.977-54.98-0.023-79.771-11.49-24.791-11.394-46.05-30.07-60.575-53.124zm137.68 21.937c-19.815 4.484-41.147 2.639-59.779-5.353-18.684-7.965-34.804-21.964-45.331-39.375-10.547-17.402-15.358-38.062-13.672-58.422 1.581-20.284 9.723-39.92 23.033-55.357l3.322 2.838c-12.721 14.754-20.489 33.495-22 52.87-1.608 19.475 2.985 39.182 13.057 55.809 10.054 16.63 25.464 30.013 43.305 37.618 17.775 7.629 38.178 9.392 57.105 5.109zm-32.372-7.884c-22.389-2.619-43.489-14.413-57.658-32.083l3.399-2.746c13.476 16.802 33.522 28.004 54.79 30.49zm-18.223-16.902c13.381 5.616 28.712 7.134 43.114 4.42l0.801 4.296c-15.226 2.867-31.412 1.266-45.584-4.677zm-9.915-11.291c15.067 10.091 34.09 13.873 52.079 10.457 17.751-3.232 34.164-13.79 44.662-28.71l3.566 2.527c-11.14 15.832-28.558 27.042-47.426 30.477-19.077 3.63-39.287-0.39-55.292-11.106zm-4.479-7.337c9.19 7.655 20.239 12.934 31.962 14.834 11.77 2.031 24.215 0.846 35.22-3.302 22.386-8.169 39.67-29.378 43.035-52.857l4.318 0.663c-3.596 25.032-21.969 47.578-45.816 56.284-11.74 4.423-24.962 5.679-37.491 3.519-12.487-2.028-24.265-7.647-34.039-15.796zm-1.254-2.491c9.526 8.67 21.44 14.42 34.026 16.39 12.718 2.009 26.012 0.346 37.567-4.826 23.651-10.229 39.953-35.056 39.604-60.823h4.37c0.369 27.46-17.001 53.926-42.204 64.817-12.331 5.518-26.488 7.289-40.027 5.146-13.422-2.102-26.133-8.237-36.274-17.47zm-58.457 18.127c-14.117-21.457-21.185-47.465-19.932-73.093 1.048-25.671 10.611-50.88 26.623-70.932 15.911-20.154 38.321-35.065 63.073-41.968 24.732-6.97 51.571-5.973 75.722 2.857l-1.503 4.102c-23.275-8.511-49.194-9.473-73.037-2.752-23.865 6.655-45.484 21.036-60.834 40.482-15.449 19.348-24.667 43.644-25.679 68.411-1.206 24.738 5.608 49.799 19.223 70.499zm5.679-160.14c23.663-25.097 57.457-40.469 91.974-41.692l0.178 4.367c-33.404 1.185-66.083 16.049-88.986 40.337zm129.35-42.58c-26.058-6.112-53.728-4.655-78.976 4.483l-1.48-4.11c26.056-9.429 54.57-10.933 81.456-4.627zm88.47 53.807c-20.824-30.906-53.933-53.287-90.607-60.77-36.444-7.669-75.824-0.73-107.34 19.399l-2.336-3.695c32.473-20.736 73.036-27.884 110.57-19.983 37.787 7.714 71.886 30.766 93.331 62.596zm27.156 59.454c-3.901-26.024-14.773-51.055-31.347-71.441-16.488-20.421-38.356-36.541-63.026-45.851-24.667-9.439-51.627-12.046-77.545-7.764-26.009 4.205-50.756 15.676-70.942 32.45l-2.797-3.359c20.774-17.264 46.253-29.071 73.028-33.402 26.673-4.408 54.414-1.727 79.814 7.993 25.396 9.586 47.901 26.171 64.872 47.191 17.052 20.98 28.253 46.752 32.264 73.539zm2.9 22.075c0.053-28.827-8.509-57.885-24.376-82.06-15.77-24.242-38.608-43.741-65.117-55.459-26.532-11.814-56.345-15.537-84.852-10.976-28.635 4.502-55.823 17.665-77.162 37.126l-2.937-3.235c21.953-20.024 49.936-33.573 79.407-38.206 29.328-4.694 60.004-0.864 87.316 11.295 27.283 12.059 50.777 32.123 67.005 57.068 16.329 24.874 25.144 54.793 25.087 84.447zm-245.62 36.785c-9.802-25.113-9.009-54.312 2.202-78.819 11.043-24.635 32.361-44.525 57.722-53.771l1.511 4.101c-24.265 8.843-44.686 27.899-55.251 51.471-10.728 23.435-11.489 51.425-2.108 75.443zm41.461-112.05c-14.498 10.344-25.932 24.978-32.384 41.52l-4.068-1.595c6.76-17.332 18.729-32.649 33.911-43.479zm69.002-12.806c-27.724-4.939-57.134 4.032-77.231 23.692-20.348 19.383-30.563 48.362-26.602 76.281l-4.332 0.575c-4.153-29.248 6.568-59.694 27.903-80.006 21.064-20.612 51.955-30.033 81.002-24.847zm21.961 7.933c-15.332-7.175-32.856-9.762-49.752-7.315-16.811 2.36-32.823 9.731-45.626 20.979-12.833 11.203-22.312 26.159-26.868 42.475-4.595 16.272-4.395 34.166 0.645 50.303l-4.172 1.297c-5.293-16.953-5.504-35.69-0.68-52.783 4.786-17.135 14.735-32.827 28.196-44.58 13.429-11.799 30.244-19.542 47.891-22.019 17.717-2.564 36.105 0.145 52.212 7.681zm-116.19 71.849c-1.549 15.347 1.3 30.881 8.281 44.426l-3.888 1.994c-7.369-14.297-10.377-30.702-8.739-46.867zm33.681-46.222c-10.541 8.746-18.453 20.582-22.439 33.528-4.027 12.867-4.139 27.397-0.441 40.37 7.093 26.309 31.213 47.399 58.214 50.776l-0.606 4.33c-28.698-3.607-54.266-25.959-61.812-53.914-3.929-13.796-3.807-29.167 0.471-42.854 4.235-13.758 12.635-26.316 23.818-35.595zm-70.741 105.15c9.725 22.345 26.064 41.693 46.403 55.077l-2.407 3.648c-21.04-13.846-37.937-33.854-48.001-56.976zm-15.364-75.877c-4.875 25.268-2.3 51.873 7.486 75.753 9.707 23.873 26.467 44.724 47.608 59.386 21.084 14.742 46.626 23.132 72.318 23.812 25.65 0.841 51.672-5.958 73.611-19.434l2.276 3.73c-22.653 13.916-49.543 20.941-76.015 20.072-26.523-0.703-52.916-9.369-74.684-24.593-21.831-15.14-39.132-36.665-49.16-61.323-10.109-24.673-12.764-52.13-7.733-78.224zm20.431-20.576c-8.891 21.337-11.268 45.252-7.008 67.938l-4.294 0.802c-4.415-23.513-1.954-48.28 7.264-70.411zm71.456-77.455c-23.76 7.56-45.127 22.212-60.826 41.517-15.76 19.249-25.819 43.2-28.365 67.983-2.622 24.704 1.957 50.237 13.325 72.422 11.275 22.212 29.087 40.983 50.656 53.427l2.19-3.783c-20.841-12.023-38.06-30.167-48.952-51.627-10.981-21.432-15.405-46.092-12.872-69.979 2.459-23.946 12.174-47.076 27.404-65.682 15.174-18.655 35.823-32.815 58.773-40.116z" fill="#f38e2e"/><path d="m197.2 263.54c-1.747 6.009-2.785 12.076-3.32 17.948-2.304 3.928-4.265 8.049-5.977 12.26-0.227-4.172-0.095-8.409 0.223-12.771-13.917 25.326-16.603 56.567-7.38 83.952 9.019 27.455 29.939 50.804 56.294 62.726 26.201 12.154 57.571 12.759 84.251 1.698 26.819-10.84 48.607-33.382 58.77-60.423l4.095 1.55c-10.588 28.174-33.263 51.626-61.199 62.926-27.806 11.519-60.436 10.892-87.742-1.771-27.452-12.421-49.223-36.716-58.624-65.32-9.606-28.531-6.809-61.035 7.687-87.428-3.463 2.834-6.923 5.898-10.144 9.28 1.967-4.838 4.223-9.568 6.864-14.078 5.226-4.097 10.609-7.659 16.202-10.549m-11.769 58.832c1.687 4.452 3.603 8.675 5.842 12.61 0.108 3.41 0.48 6.787 0.933 10.151-1.823-2.577-3.597-5.3-5.223-8.178 1.161 21.482 9.968 42.274 24.534 58.145 14.516 15.899 34.486 26.583 55.72 29.654 21.327 3.131 43.55-1.115 61.965-12.166 18.499-10.928 33.045-28.424 40.433-48.543l3.425 1.261c-7.677 20.907-22.777 39.066-41.991 50.42-19.133 11.479-42.229 15.893-64.362 12.638-22.063-3.19-42.814-14.291-57.883-30.8-15.123-16.474-24.28-38.091-25.484-60.402-1.274 3.158-2.379 6.433-3.374 9.83-0.522-3.826-0.939-7.669-1.066-11.537 1.868-4.636 4.109-9.014 6.531-13.083m22.465 48.254c2.858 1.818 5.765 3.406 8.686 4.779 1.339 1.944 2.769 3.821 4.244 5.667-2.092-0.818-4.306-1.654-6.4-2.686 17.06 24.708 47.977 38.191 77.706 33.878 29.5-3.568 56.021-25.246 65.785-53.334l2.748 0.983c-10.117 29.102-37.569 51.538-68.142 55.243-30.772 4.471-62.83-9.507-80.482-35.086 0.232 2.433 0.688 4.811 1.144 7.3-1.666-2.076-3.275-4.19-4.782-6.383-0.393-3.522-0.558-6.983-0.507-10.361m40.138 22.451c2.245-0.244 4.399-0.525 6.517-0.973 1.35 0.637 2.763 1.118 4.146 1.669-1.458 0.396-2.943 0.718-4.489 1.062 17.082 7.376 37.837 7.229 54.774-0.451 17.153-7.519 31.152-22.643 37.129-40.35l2.071 0.717c-6.177 18.28-20.607 33.872-38.313 41.635-17.491 7.927-38.877 8.077-56.518 0.464 0.9 1.279 1.832 2.617 2.831 3.912-1.542-0.607-3.115-1.152-4.619-1.856-1.305-1.9-2.457-3.893-3.529-5.829m38.396-5.075c0.943-0.874 1.811-1.909 2.659-2.801 0.815-0.096 1.604-0.305 2.412-0.418-0.557 0.681-1.137 1.381-1.735 2.097 20.007-2.843 38.263-18.12 44.466-37.513l1.385 0.466c-6.373 19.905-25.086 35.567-45.629 38.49 0.793 0.431 1.609 0.873 2.45 1.324-0.881 0.126-1.746 0.347-2.634 0.453-1.175-0.728-2.279-1.327-3.374-2.098m22.049-22.511c0.068-0.542 0.083-1.128 0.098-1.698l0.736-0.632-0.044 1.186c6.054-5.184 10.671-12.027 13.013-19.419l0.695 0.227c-2.384 7.521-7.076 14.477-13.233 19.747l1.218 0.108-0.778 0.667c-0.567-0.043-1.121-0.086-1.705-0.186m1.785-24.772m-147.46-22.283c1.522 5.488 3.302 10.736 5.534 15.708 0.043 4.262 0.439 8.514 1.004 12.731-1.943-3.309-3.679-6.782-5.314-10.392 1.029 26.678 11.621 52.846 29.409 72.752 17.659 20.018 42.342 33.692 68.713 37.908 26.318 4.305 54.135-0.539 77.226-13.972 23.198-13.202 41.575-34.636 51.116-59.559l3.404 1.312c-9.842 25.705-28.783 47.798-52.703 61.41-23.816 13.852-52.502 18.852-79.627 14.41-27.201-4.349-52.654-18.451-70.858-39.086-18.337-20.517-29.266-47.517-30.326-75.019-1.269 3.845-2.418 7.823-3.306 11.91-0.628-4.681-1.061-9.397-1.115-14.118 1.883-5.61 4.264-10.955 6.843-15.995m2.928 70.366c3.535 3.362 7.156 6.487 10.953 9.291 1.985 3.17 4.167 6.216 6.458 9.168-2.859-1.717-5.594-3.641-8.351-5.649 12.78 19.355 30.902 35.109 51.882 45.04 20.969 10.019 44.72 13.851 67.746 11.512 23.083-2.383 45.455-11.29 63.875-25.37 18.481-14.014 32.957-33.21 41.407-54.826l2.719 1.065c-8.647 22.116-23.453 41.748-42.355 56.082-18.838 14.403-41.731 23.515-65.344 25.953-23.543 2.395-47.842-1.526-69.295-11.777-21.465-10.16-39.996-26.27-53.07-46.067 0.855 3.351 1.787 6.765 2.957 10.103-2.474-3.188-4.828-6.479-6.975-9.901-1.204-4.877-2.029-9.791-2.607-14.624m44.217 61.66c3.819 0.828 7.61 1.505 11.394 1.986 2.737 1.358 5.533 2.607 8.35 3.785-2.692-0.136-5.359-0.46-8.103-0.729 33.963 16.41 74.449 17.921 109.52 4.109 35.139-13.571 63.953-42.125 77.761-77.179l2.034 0.811c-14.032 35.616-43.296 64.619-78.998 78.409-35.636 14.031-76.75 12.497-111.26-4.176 2.025 1.86 4.064 3.817 6.221 5.623-2.975-1.243-5.924-2.562-8.812-3.997-2.864-2.788-5.552-5.69-8.1-8.642m75.892 29.348c2.604-0.849 5.164-1.899 7.681-2.92 2.197-0.133 4.382-0.428 6.567-0.707-1.743 0.785-3.502 1.67-5.296 2.358 26.779-2.44 52.933-12.433 74.458-28.525 21.563-16.049 38.616-38.028 48.739-63.006l1.354 0.55c-10.224 25.226-27.448 47.421-49.221 63.627-21.738 16.251-48.151 26.344-75.197 28.808 1.919 0.469 3.847 0.737 5.802 1.1-2.26 0.287-4.518 0.59-6.79 0.73-2.743-0.617-5.44-1.215-8.097-2.015m85.014-18.007 2.709-3.446c0.969-0.678 1.92-1.382 2.843-2.124-0.594 0.842-1.199 1.68-1.839 2.48 23.144-17.008 41.507-40.375 52.498-67.014l0.675 0.278c-11.042 26.764-29.49 50.237-52.739 67.323 0.987-0.334 1.949-0.711 2.91-1.097-0.937 0.75-1.906 1.464-2.888 2.156zm65.238-65.302m-243.14 57.463c3.942-0.181 7.83-0.551 11.65-1.093 2.079 1.381 4.271 2.584 6.43 3.834-2.644 0.476-5.397 0.979-8.123 1.3 26.473 16.558 58.483 24.171 89.429 21.766 31.107-2.243 61.532-14.712 85.156-35.03l2.84 3.337c-24.313 20.91-55.645 33.753-87.668 36.06-31.84 2.477-64.811-5.363-92.063-22.41 0.942 2.684 2.041 5.257 3.163 7.935-2.385-1.377-4.798-2.71-7.095-4.229-1.435-3.81-2.672-7.633-3.719-11.47m34.151 5.706c3.014-1.027 5.919-2.073 8.752-3.224l5.478 1.854c-1.955 0.879-3.959 1.738-6.011 2.575 22.679 8.023 47.325 9.935 70.907 5.527 23.636-4.31 46.028-15.091 64.184-30.733l2.375 2.772c-18.635 16.055-41.626 27.124-65.893 31.549-24.212 4.525-49.496 2.565-72.791-5.674 1.124 1.921 2.299 3.853 3.525 5.794l-5.99-2.026c-1.628-2.8-3.125-5.642-4.536-8.414m32.254-4.135c1.975-1.298 3.891-2.674 5.752-4.127 1.392 0.164 2.78 0.378 4.178 0.502-1.276 1.064-2.575 2.036-3.911 3.051 34.516 4.558 70.855-6.238 97.073-29.257l1.908 2.209c-26.825 23.555-64.035 34.612-99.349 29.945 1.074 1.297 2.177 2.647 3.32 3.908-1.509-0.133-3.012-0.36-4.518-0.542-1.562-1.835-3.045-3.736-4.453-5.689m27.551-11.347c1.091-1.326 2.143-2.649 3.158-3.967 0.945-0.088 1.899-0.109 2.836-0.245-0.686 0.989-1.403 1.874-2.132 2.819 23.386-1.897 46-11.542 63.646-26.997l1.44 1.651c-17.993 15.756-41.057 25.595-64.9 27.527 0.895 0.795 1.814 1.643 2.74 2.383-1.004 0.145-2.02 0.174-3.028 0.266-1.291-1.145-2.545-2.289-3.76-3.437m21.426-16.76 1.24-2.922c0.549-0.137 1.072-0.346 1.607-0.521l-0.818 2.114c13.215-4.072 25.531-11.02 35.954-20.148l0.962 1.096c-10.575 9.263-23.074 16.313-36.483 20.446 0.636 0.421 1.268 0.802 1.914 1.204-0.561 0.181-1.113 0.4-1.687 0.545-0.914-0.601-1.809-1.205-2.689-1.814m14.394-19.958 0.16-1.524 0.643-0.372-0.105 1.069c5.246-2.967 10.189-6.488 14.722-10.481l0.484 0.548c-4.571 4.028-9.557 7.577-14.847 10.569l0.98 0.442-0.662 0.383zm7.184-21.035m-112.58 93.968c3.36-0.808 6.67-1.763 9.865-2.724 2.126 0.765 4.276 1.475 6.419 2.197-2.227 0.79-4.502 1.558-6.824 2.296 26.488 9.5 55.141 11.91 82.69 6.924 27.64-4.849 53.852-17.347 75.143-35.426l2.359 2.785c-21.771 18.488-48.587 31.271-76.858 36.232-28.176 5.099-57.472 2.637-84.571-7.081 1.376 2.014 2.807 4.035 4.29 6.061-2.316-0.777-4.637-1.545-6.933-2.373-1.966-2.985-3.846-5.907-5.58-8.891m32.184 19.924c2.617-1.226 5.16-2.387 7.656-3.741l5.756 0.73c-1.722 0.963-3.477 1.916-5.264 2.857 46.911 6.784 97.079-7.487 133.24-38.497l1.882 2.231c-36.778 31.54-87.821 46.061-135.52 39.159 1.496 1.369 3.027 2.736 4.592 4.096l-6.098-0.774c-2.158-1.931-4.23-4.041-6.243-6.061m166.17-6.339m-224.76-220.47c0.976-1.589 2.059-3.107 3.149-4.622 0.532 2.293 1.042 4.481 1.739 6.701 11.665-17.961 29.26-31.957 49.231-39.524 19.93-7.639 42.47-8.609 63.058-2.946l-1.158 4.224c-19.689-5.418-41.299-4.489-60.35 2.82-19.103 7.236-35.957 20.636-47.121 37.832 2.188-0.252 4.478-0.345 6.655-0.423-0.939 1.306-1.878 2.61-2.712 3.983-3.141 0.23-6.244 0.661-9.413 1.23-1.15-2.989-2.22-6.107-3.078-9.275m23.678-8.639 2.965-2.829c0.165 1.86 0.365 3.683 0.599 5.465 11.185-11.073 25.317-19.003 40.448-22.962 15.136-3.85 31.529-3.778 46.566 0.454l-0.977 3.516c-14.411-4.06-30.168-4.128-44.679-0.437-14.505 3.801-28.064 11.402-38.799 22.028 1.776 0.325 3.512 0.68 5.205 1.066l-2.581 2.457c-2.415-0.438-4.925-0.821-7.483-1.108-0.502-2.48-0.912-5.019-1.264-7.65m23.504-0.569c0.787-0.485 1.534-1.04 2.354-1.467-0.086 1.357-0.094 2.785-0.091 4.162 17.839-11.579 40.96-14.765 61.468-8.939l-0.792 2.813c-19.72-5.605-41.974-2.542-59.114 8.593 1.222 0.603 2.394 1.193 3.587 1.883-0.721 0.37-1.371 0.865-2.061 1.287-1.702-0.883-3.459-1.728-5.225-2.458-0.131-1.971-0.16-3.908-0.126-5.874m20.251 5.804c0.526-0.217 1.073-0.357 1.607-0.548-0.163 0.977-0.311 1.943-0.441 2.898 12.158-4.484 26.356-4.978 38.876-1.364l-0.6 2.107c-12.074-3.489-25.806-3.009-37.524 1.312 0.716 0.691 1.412 1.383 2.089 2.079-0.471 0.169-0.96 0.287-1.422 0.48-0.975-0.934-1.988-1.862-3.044-2.784 0.122-1.372 0.273-2.765 0.459-4.18m15.528 10.814 0.882-0.108-0.495 1.822c6.874-0.941 14.13-0.427 20.599 1.465l-0.407 1.403c-6.267-1.837-13.322-2.335-19.995-1.424l0.9 1.65-0.796 0.095c-0.43-0.785-0.876-1.578-1.329-2.312 0.19-0.896 0.409-1.737 0.641-2.591m10.034 13.962 0.323 0.023-0.332 0.852c2.539 0.19 4.973 0.634 7.337 1.32l-0.205 0.703c-2.314-0.673-4.698-1.109-7.188-1.295l0.185 0.888-0.301-0.023-0.278-1.268zm3.611 15.147m-89.595-60.882c1.188-1.212 2.444-2.351 3.662-3.53-0.031 2.038-0.022 4.044 0.02 6.011 13.972-13.888 31.596-24.074 50.645-29.089 19.038-5.012 39.417-4.974 58.416 0.202l-0.955 3.523c-18.374-5.009-38.118-5.047-56.529-0.198-18.424 4.853-35.478 14.706-49.002 28.148 1.978 0.125 3.919 0.288 5.82 0.482-1.088 1.06-2.215 2.076-3.277 3.159-2.683-0.138-5.507-0.266-8.287-0.212-0.299-2.805-0.411-5.585-0.513-8.496m14.176-22.615 3.679-2.356c-0.415 1.644-0.798 3.273-1.156 4.884 28.595-18.818 65.261-24.55 98.247-15.501l-0.756 2.819c-32.199-8.831-67.998-3.235-95.899 15.13 1.601 0.355 3.176 0.73 4.721 1.123l-3.387 2.172c-2.261-0.556-4.476-0.926-6.792-1.327 0.39-2.281 0.787-4.668 1.343-6.944m20.15-20.015c1.089-0.418 2.164-0.878 3.269-1.254-0.626 1.125-1.202 2.329-1.777 3.482 25.791-10.008 54.604-11.545 81.292-4.381l-0.564 2.116c-26.239-7.045-54.586-5.533-79.939 4.307 1.189 0.482 2.344 0.927 3.511 1.462-1.044 0.354-2.057 0.791-3.087 1.185-1.655-0.669-3.362-1.356-5.076-1.962 0.741-1.671 1.544-3.289 2.371-4.955m25.617-15.868c0.815-0.143 1.63-0.296 2.453-0.387-0.599 0.653-1.187 1.342-1.763 2.039 19.468-3.128 39.481-2.213 58.599 2.858l-0.372 1.413c-18.917-5.02-38.729-5.926-57.995-2.83 0.756 0.453 1.503 0.919 2.247 1.419-0.794 0.089-1.58 0.237-2.367 0.376l-3.233-1.94c0.794-0.981 1.603-1.963 2.431-2.948m30.049-10.306c0.436 0.018 0.873 0.016 1.31 0.056l-1.129 0.823c10.476 0.475 20.952 2.037 31.139 4.722l-0.183 0.707c-10.138-2.672-20.564-4.225-30.988-4.7l1.03 0.921c-0.43-0.039-0.859-0.038-1.289-0.055l-1.475-1.28zm33.358-3.625m25.532 242.14c-33.472 25.873-82.323 29.096-118.99 8.08-18.369-10.24-33.672-25.918-43.459-44.531-9.841-18.579-14.114-40.041-12.113-61.015 1.882-20.954 10.022-41.254 23.118-57.725 13.037-16.511 30.926-29.148 50.862-35.816 19.9-6.712 41.822-7.502 62.181-2.278 20.369 5.213 39.12 16.523 53.314 32.06l-3.222 2.951c-13.632-14.92-31.633-25.777-51.18-30.779-19.535-5.012-40.614-4.252-59.701 2.189-19.129 6.397-36.309 18.531-48.829 34.386-12.575 15.819-20.383 35.292-22.19 55.409-1.925 20.158 2.181 40.745 11.624 58.58 9.394 17.864 24.096 32.927 41.728 42.756 35.183 20.165 82.104 17.081 114.22-7.758zm-49.11 30.653c-24.593 3.462-50.253-0.93-72.212-12.594-22.029-11.528-40.13-30.24-51.184-52.478-11.169-22.226-14.859-48.012-10.794-72.504 4.005-24.53 15.992-47.652 33.666-65.114l3.076 3.104c-17.03 16.828-28.572 39.097-32.431 62.722-3.915 23.604-0.361 48.448 10.397 69.847 10.649 21.418 28.09 39.46 49.312 50.56 21.146 11.232 45.861 15.463 69.566 12.129zm-50.986 4.522c-31.538-8.713-59.169-30.181-75.563-58.436l3.775-2.204c15.829 27.287 42.523 48.023 72.968 56.431zm-38.052-15.554c20.535 14.005 45.291 21.804 70.109 22.154l-0.077 4.369c-25.649-0.362-51.26-8.43-72.485-22.907zm-25.723-16.255c23.158 25.261 56.486 41.051 90.783 42.744 34.18 2.026 69.134-9.856 94.918-32.466l2.862 3.3c-26.614 23.346-62.741 35.624-98.019 33.529-35.416-1.748-69.846-18.06-93.751-44.139zm-13.737-12.788c13.697 19.766 32.767 35.688 54.596 45.815 21.817 10.24 46.417 14.22 70.274 11.996 48.211-4.115 92.488-36.139 111.7-80.437l3.994 1.775c-19.834 45.716-65.518 78.759-115.29 83.013-24.606 2.297-50.002-1.814-72.521-12.383-22.534-10.451-42.205-26.882-56.343-47.279zm-4.222-4.738c14.076 22.342 34.686 40.449 58.711 51.491 24.017 11.108 51.228 14.988 77.311 11.132 26.172-3.761 51.143-15.391 70.888-32.882 19.809-17.42 34.465-40.676 41.494-66.184l4.212 1.168c-7.257 26.329-22.381 50.322-42.814 68.294-20.368 18.044-46.142 30.049-73.151 33.929-26.902 3.977-54.98-0.023-79.771-11.49-24.791-11.394-46.05-30.07-60.575-53.124zm137.68 21.937c-19.815 4.484-41.147 2.639-59.779-5.353-18.684-7.965-34.804-21.964-45.331-39.375-10.547-17.402-15.358-38.062-13.672-58.422 1.581-20.284 9.723-39.92 23.033-55.357l3.322 2.838c-12.721 14.754-20.489 33.495-22 52.87-1.608 19.475 2.985 39.182 13.057 55.809 10.054 16.63 25.464 30.013 43.305 37.618 17.775 7.629 38.178 9.392 57.105 5.109zm-32.372-7.884c-22.389-2.619-43.489-14.413-57.658-32.083l3.399-2.746c13.476 16.802 33.522 28.004 54.79 30.49zm-18.223-16.902c13.381 5.616 28.712 7.134 43.114 4.42l0.801 4.296c-15.226 2.867-31.412 1.266-45.584-4.677zm-9.915-11.291c15.067 10.091 34.09 13.873 52.079 10.457 17.751-3.232 34.164-13.79 44.662-28.71l3.566 2.527c-11.14 15.832-28.558 27.042-47.426 30.477-19.077 3.63-39.287-0.39-55.292-11.106zm-4.479-7.337c9.19 7.655 20.239 12.934 31.962 14.834 11.77 2.031 24.215 0.846 35.22-3.302 22.386-8.169 39.67-29.378 43.035-52.857l4.318 0.663c-3.596 25.032-21.969 47.578-45.816 56.284-11.74 4.423-24.962 5.679-37.491 3.519-12.487-2.028-24.265-7.647-34.039-15.796zm-1.254-2.491c9.526 8.67 21.44 14.42 34.026 16.39 12.718 2.009 26.012 0.346 37.567-4.826 23.651-10.229 39.953-35.056 39.604-60.823h4.37c0.369 27.46-17.001 53.926-42.204 64.817-12.331 5.518-26.488 7.289-40.027 5.146-13.422-2.102-26.133-8.237-36.274-17.47zm-58.457 18.127c-14.117-21.457-21.185-47.465-19.932-73.093 1.048-25.671 10.611-50.88 26.623-70.932 15.911-20.154 38.321-35.065 63.073-41.968 24.732-6.97 51.571-5.973 75.722 2.857l-1.503 4.102c-23.275-8.511-49.194-9.473-73.037-2.752-23.865 6.655-45.484 21.036-60.834 40.482-15.449 19.348-24.667 43.644-25.679 68.411-1.206 24.738 5.608 49.799 19.223 70.499zm5.679-160.14c23.663-25.097 57.457-40.469 91.974-41.692l0.178 4.367c-33.404 1.185-66.083 16.049-88.986 40.337zm129.35-42.58c-26.058-6.112-53.728-4.655-78.976 4.483l-1.48-4.11c26.056-9.429 54.57-10.933 81.456-4.627zm88.47 53.807c-20.824-30.906-53.933-53.287-90.607-60.77-36.444-7.669-75.824-0.73-107.34 19.399l-2.336-3.695c32.473-20.736 73.036-27.884 110.57-19.983 37.787 7.714 71.886 30.766 93.331 62.596zm27.156 59.454c-3.901-26.024-14.773-51.055-31.347-71.441-16.488-20.421-38.356-36.541-63.026-45.851-24.667-9.439-51.627-12.046-77.545-7.764-26.009 4.205-50.756 15.676-70.942 32.45l-2.797-3.359c20.774-17.264 46.253-29.071 73.028-33.402 26.673-4.408 54.414-1.727 79.814 7.993 25.396 9.586 47.901 26.171 64.872 47.191 17.052 20.98 28.253 46.752 32.264 73.539zm2.9 22.075c0.053-28.827-8.509-57.885-24.376-82.06-15.77-24.242-38.608-43.741-65.117-55.459-26.532-11.814-56.345-15.537-84.852-10.976-28.635 4.502-55.823 17.665-77.162 37.126l-2.937-3.235c21.953-20.024 49.936-33.573 79.407-38.206 29.328-4.694 60.004-0.864 87.316 11.295 27.283 12.059 50.777 32.123 67.005 57.068 16.329 24.874 25.144 54.793 25.087 84.447zm-245.62 36.785c-9.802-25.113-9.009-54.312 2.202-78.819 11.043-24.635 32.361-44.525 57.722-53.771l1.511 4.101c-24.265 8.843-44.686 27.899-55.251 51.471-10.728 23.435-11.489 51.425-2.108 75.443zm41.461-112.05c-14.498 10.344-25.932 24.978-32.384 41.52l-4.068-1.595c6.76-17.332 18.729-32.649 33.911-43.479zm69.002-12.806c-27.724-4.939-57.134 4.032-77.231 23.692-20.348 19.383-30.563 48.362-26.602 76.281l-4.332 0.575c-4.153-29.248 6.568-59.694 27.903-80.006 21.064-20.612 51.955-30.033 81.002-24.847zm21.961 7.933c-15.332-7.175-32.856-9.762-49.752-7.315-16.811 2.36-32.823 9.731-45.626 20.979-12.833 11.203-22.312 26.159-26.868 42.475-4.595 16.272-4.395 34.166 0.645 50.303l-4.172 1.297c-5.293-16.953-5.504-35.69-0.68-52.783 4.786-17.135 14.735-32.827 28.196-44.58 13.429-11.799 30.244-19.542 47.891-22.019 17.717-2.564 36.105 0.145 52.212 7.681zm-116.19 71.849c-1.549 15.347 1.3 30.881 8.281 44.426l-3.888 1.994c-7.369-14.297-10.377-30.702-8.739-46.867zm33.681-46.222c-10.541 8.746-18.453 20.582-22.439 33.528-4.027 12.867-4.139 27.397-0.441 40.37 7.093 26.309 31.213 47.399 58.214 50.776l-0.606 4.33c-28.698-3.607-54.266-25.959-61.812-53.914-3.929-13.796-3.807-29.167 0.471-42.854 4.235-13.758 12.635-26.316 23.818-35.595zm-70.741 105.15c9.725 22.345 26.064 41.693 46.403 55.077l-2.407 3.648c-21.04-13.846-37.937-33.854-48.001-56.976zm-15.364-75.877c-4.875 25.268-2.3 51.873 7.486 75.753 9.707 23.873 26.467 44.724 47.608 59.386 21.084 14.742 46.626 23.132 72.318 23.812 25.65 0.841 51.672-5.958 73.611-19.434l2.276 3.73c-22.653 13.916-49.543 20.941-76.015 20.072-26.523-0.703-52.916-9.369-74.684-24.593-21.831-15.14-39.132-36.665-49.16-61.323-10.109-24.673-12.764-52.13-7.733-78.224zm20.431-20.576c-8.891 21.337-11.268 45.252-7.008 67.938l-4.294 0.802c-4.415-23.513-1.954-48.28 7.264-70.411zm71.456-77.455c-23.76 7.56-45.127 22.212-60.826 41.517-15.76 19.249-25.819 43.2-28.365 67.983-2.622 24.704 1.957 50.237 13.325 72.422 11.275 22.212 29.087 40.983 50.656 53.427l2.19-3.783c-20.841-12.023-38.06-30.167-48.952-51.627-10.981-21.432-15.405-46.092-12.872-69.979 2.459-23.946 12.174-47.076 27.404-65.682 15.174-18.655 35.823-32.815 58.773-40.116z" fill="url(#b)"/></g></g></g></svg>
